<svg version="1.1" id="Layer_1" xmlns="http://www.w3.org/2000/svg" x="0" y="0" viewBox="0 0 292 68.6" xml:space="preserve"><style type="text/css">.st0,.st1{fill-rule:evenodd;clip-rule:evenodd;fill:#ffd600}.st1{fill:#fff}</style><path class="st0" d="M40.1 6.4h29.1L84.8 22v24.6L69.2 62.2H43c-.7-.8-1.8-1.4-3-1.4-2.1 0-3.9 1.7-3.9 3.9 0 2.1 1.7 3.9 3.9 3.9 1.2 0 2.2-.5 3-1.4h28.3l18.5-18.5V19.9L71.3 1.4H40.1c-.7-.8-1.8-1.4-3-1.4-2.1 0-3.9 1.7-3.9 3.9 0 2.1 1.7 3.9 3.9 3.9 1.2 0 2.3-.6 3-1.4zm-3-4.2c.9 0 1.6.7 1.6 1.6 0 .9-.7 1.6-1.6 1.6-.9 0-1.6-.7-1.6-1.6 0-.8.7-1.6 1.6-1.6zm3 60.9c.9 0 1.6.7 1.6 1.6 0 .9-.7 1.6-1.6 1.6-.9 0-1.6-.7-1.6-1.6 0-.9.7-1.6 1.6-1.6z"/><path class="st0" d="M67.2 11.4H30v.1c-.7-.8-1.7-1.2-2.8-1.2-2.1 0-3.9 1.7-3.9 3.9 0 2.1 1.7 3.9 3.9 3.9 1.3 0 2.5-.6 3.2-1.6h34.7l9.7 9.7v16.3l-9.7 9.7H29.8c-.7-.8-1.8-1.4-3-1.4-2.1 0-3.9 1.7-3.9 3.9 0 2.1 1.7 3.9 3.9 3.9 1.2 0 2.2-.5 3-1.4h37.3l12.6-12.6V24L67.2 11.4zm-40 1.2c.9 0 1.6.7 1.6 1.6 0 .9-.7 1.6-1.6 1.6-.9 0-1.6-.7-1.6-1.6-.1-.9.7-1.6 1.6-1.6zM26.9 53c.9 0 1.6.7 1.6 1.6 0 .9-.7 1.6-1.6 1.6-.9 0-1.6-.7-1.6-1.6-.1-.9.7-1.6 1.6-1.6z"/><path class="st0" d="M61.4 47H16.2c-.7.7-1.6 1.1-2.7 1.1-2.1 0-3.9-1.7-3.9-3.9 0-2.1 1.7-3.9 3.9-3.9 1.3 0 2.5.7 3.2 1.7h12.4l-5.2-5.2H6.8c-.7.8-1.8 1.4-3 1.4-2.1 0-3.9-1.7-3.9-3.9 0-2.1 1.7-3.9 3.9-3.9 1.2 0 2.2.5 3 1.4H26L36.3 42h24.6l3.7-3.7v-7.9l-3.7-3.7H38l5.2 5.2h10.1c.7-.8 1.8-1.4 3-1.4 2.1 0 3.9 1.7 3.9 3.9 0 2.1-1.7 3.9-3.9 3.9-1.2 0-2.2-.5-3-1.4H41.1L30.9 26.6H17.4c-.7.8-1.8 1.4-3 1.4-2.1 0-3.9-1.7-3.9-3.9 0-2.1 1.7-3.9 3.9-3.9 1.2 0 2.2.5 3 1.4H63l6.7 6.7v12.1L63 47h-1.6zm-5.1-14.4c-.9 0-1.6.7-1.6 1.6 0 .9.7 1.6 1.6 1.6.9 0 1.6-.7 1.6-1.6.1-.8-.7-1.6-1.6-1.6zM14.5 22.4c-.9 0-1.6.7-1.6 1.6 0 .9.7 1.6 1.6 1.6.9 0 1.6-.7 1.6-1.6 0-.8-.7-1.6-1.6-1.6zm-1 20.2c-.9 0-1.6.7-1.6 1.6 0 .9.7 1.6 1.6 1.6.9 0 1.6-.7 1.6-1.6.1-.9-.7-1.6-1.6-1.6zm-9.6-10c-.9 0-1.6.7-1.6 1.6 0 .9.7 1.6 1.6 1.6.9 0 1.6-.7 1.6-1.6 0-.8-.7-1.6-1.6-1.6z"/><path class="st1" d="M111.2 23H134c3.9 0 7.1 3.2 7.1 7.1v8.4c0 3.9-3.2 7.1-7.1 7.1h-22.8V23zm22.9-6.1h-29v34.9h29c7.3 0 13.3-6 13.3-13.3v-8.4c-.1-7.3-6-13.2-13.3-13.2zM204 31.2v20.5h36.1v-6.2h-29.9v-8.1h24.9v-6.2h-24.9zM160.9 23h22.8c3.9 0 7.1 3.2 7.1 7.1v8.4c0 3.9-3.2 7.1-7.1 7.1h-22.8V23zm22.8-6.1h-29v34.9h29c7.3 0 13.3-6 13.3-13.3v-8.4c0-7.3-6-13.2-13.3-13.2zm63 0l19.1 33 1 1.8h5l1.1-1.8 19.1-33h-7.2l-15.5 26.8-15.5-26.8z"/><path class="st0" d="M210.2 23h29.9v-6.1H204V23z"/></svg>