<svg version="1.1" id="Capa_1" xmlns="http://www.w3.org/2000/svg" x="0" y="0" viewBox="0 0 296.5 76.8" xml:space="preserve"><style type="text/css">.st0{fill:#099cec}.st1{fill:#fff}.st2,.st3{enable-background:new}.st2{fill:#4d5c64}.st3{opacity:5e-2}.st4{fill:#066da5}</style><path class="st0" d="M10.5 27.2h11v10h-11zm13 0h11v10h-11zm13 0h11v10h-11zm13 0h11v10h-11zm13 0h11v10h-11zm-39-12h11v10h-11zm13 0h11v10h-11zm13 0h11v10h-11zm0-12h11v10h-11z"/><path class="st0" d="M106.3 30.3c-2.3-1.5-8.2-2.2-12.5-1-.2-4.3-2.4-7.9-6.5-11.1l-1.5-1-1 1.5c-2 3-2.8 7-2.5 10.6.2 2.2 1 4.7 2.5 6.5-1.1.9-4.7 2.6-9.5 2.5H3.8c-1.3 7.6.9 36.2 34 36.2 24.6 0 44.8-11 54-34.2 3 0 11.1.5 15-7 .1-.1 1-2 1-2l-1.5-1z"/><path id="Fill-21" class="st1" d="M30.2 61c-8.2 2.8-16.9 3.2-18.8 3.2 6.1 5.1 17 14.7 35 9.2-3.3-.9-11-3.9-16.2-12.4z"/><ellipse id="Oval" class="st1" cx="36.9" cy="54.4" rx="3.5" ry="3.5"/><path class="st2" d="M37.4 53.5c0-.3.2-.6.4-.8-.3-.1-.6-.2-.9-.2-1.1 0-2 .9-2 2s.9 2 2 2 2-.9 2-2v-.1c-.1.1-.3.1-.5.1-.6 0-1-.5-1-1z"/><path id="Shape_2_" class="st3" d="M106 30.2c-2.2-1.5-8.4-2.2-12.5-1l-.9 1.3C79.2 58.2 62.4 70 39.5 70.5c-25-.1-31.2-13.2-33-31.2h-4C2 46.9 3.9 74.6 37.3 74.6c24.6 0 44.8-11 54.2-34.2 3.1.1 11.6.1 15.3-7.6l.8-1.6-1.6-1z"/><path class="st4" d="M94.3 27.9c-.6-4-2.8-7.6-6.8-10.7l-2.4-1.6-1.5 2.4c-2 3.1-3 7.2-2.7 11.2.2 2.3.9 4.5 2.1 6.2-1.7.9-4.5 1.7-7.5 1.8v-12h-13v-24h-15v12h-26v12h-13v12H2.6l-.1.8c-.5 2.4-.5 5.8 0 9.2.6 4.4 2 8.6 4.1 12.5 5.5 10 15.6 15.8 30.8 15.8 25.8 0 45.5-11.9 54.7-34.2 3.1.1 5.2-.1 7.7-1 3.2-1.1 5.8-3.2 7.5-6.6.1-.2.2-.4.5-1.1.1-.2.2-.5.3-.7 0-.1.1-.2.2-.3l.4-.8-2.2-1.5c-2.4-1.6-7.9-2.2-12.2-1.4zm-33.8 9.3h-11v-10h11v10zm-13 0h-11v-10h11v10zm-13 0h-11v-10h11v10zm39-10v10h-11v-10h11zm-13-2h-11v-10h11v10zm-11-22h11v10h-11v-10zm-13 12h11v10h-11v-10zm-13 0h11v10h-11v-10zm-13 12h11v10h-11v-10zm95.5 4.6c-.1.3-.2.5-.3.6 0 .1-.1.2-.2.3-1.5 2.9-3.7 4.7-6.4 5.6-2.2.8-4.2.9-7.1.9h-1.2l-.3.6c-8.7 21.9-27.9 33.6-53.1 33.6-11 0-19.1-3.2-24.7-8.9 1.1.1 2.1.2 3.2.2 5.2 0 10-1.4 14.3-3.8-.4-.6-.7-1.2-1-1.8-3.9 2.2-8.5 3.5-13.3 3.5-1.8 0-3.5-.2-5.2-.5-.8-1.1-1.6-2.3-2.3-3.5-2-3.6-3.3-7.6-3.9-11.8-.4-2.9-.5-5.6-.2-7.7h71.2c4 0 7.7-1.3 9.5-2.7l.8-.6-.7-.8c-1.2-1.5-2-3.7-2.3-6-.3-3.5.6-7.2 2.3-9.9l.4-.7.6.4c3.9 3 5.9 6.4 6.1 10.3l.1 1.2 1.2-.3c3.9-1 9.6-.5 11.7.9l.8.5c.1.2.1.3 0 .4z"/><path class="st4" d="M12.5 29.2h1v6h-1zm3 0h1v6h-1zm3 0h1v6h-1zm7 0h1v6h-1zm3 0h1v6h-1zm3 0h1v6h-1zm7 0h1v6h-1zm3 0h1v6h-1zm3 0h1v6h-1zm7 0h1v6h-1zm3 0h1v6h-1zm3 0h1v6h-1zm7 0h1v6h-1zm3 0h1v6h-1zm3 0h1v6h-1zm-42-12h1v6h-1zm3 0h1v6h-1zm7 0h1v6h-1zm3 0h1v6h-1zm3 0h1v6h-1zm7 0h1v6h-1zm3 0h1v6h-1zm3 0h1v6h-1zm-3-12h1v6h-1zm-3 0h1v6h-1zm6 0h1v6h-1zm-32 12h1v6h-1zm237.8 23.3c-3-3-6.5-4.4-10.6-4.4-4.2 0-7.7 1.5-10.6 4.4-2.9 3-4.4 6.5-4.4 10.7s1.5 7.8 4.4 10.7c2.9 3 6.5 4.4 10.6 4.4 3.8 0 7.1-1.2 9.8-3.7.5-.6.8-1.2.8-2s-.3-1.5-.8-2-1.2-.8-2-.8c-.7 0-1.3.3-1.9.7-.8.7-1.8 1.3-2.7 1.6-1 .4-2.1.5-3.2.5-1 0-2-.2-3-.5s-1.8-.8-2.6-1.4c-.8-.6-1.5-1.3-2.1-2.1-.6-.8-1-1.7-1.3-2.7H265c.8 0 1.5-.3 2-.8s.8-1.2.8-2c0-2.1-.4-4-1.1-5.8-.8-1.7-1.9-3.4-3.4-4.8zm-19.7 7.9c.3-1 .7-1.9 1.3-2.7.6-.8 1.3-1.5 2.1-2.1.8-.6 1.7-1 2.7-1.4s2-.5 3-.5 2 .2 3 .5 1.8.8 2.6 1.4c.8.6 1.5 1.3 2.1 2.1.6.8 1.1 1.7 1.4 2.7h-18.2zm49.1-10.5c-.5-.5-1.1-.9-1.9-1.2s-1.6-.5-2.5-.6c-.9-.1-1.8-.2-2.5-.2-1.8 0-3.5.3-5 .9s-3 1.4-4.4 2.5v-.5c0-.8-.3-1.4-.8-2-.5-.6-1.2-.8-2-.8s-1.5.3-2 .8c-.5.6-.8 1.2-.8 2v24.7c0 .8.3 1.4.8 2 .5.6 1.2.8 2 .8s1.4-.3 2-.8c.5-.6.8-1.2.8-2V51.2c0-1.3.2-2.6.7-3.7.5-1.2 1.2-2.2 2-3s1.8-1.5 3-2c1.1-.5 2.4-.7 3.7-.7 1.3 0 2.6.2 3.7.7.4.2.8.3 1.2.3.4 0 .8-.1 1.1-.2.3-.1.6-.3.9-.6.3-.3.5-.6.6-.9.2-.3.2-.7.2-1.1 0-1-.3-1.6-.8-2.1zm-58.1.9c0-.4-.1-.7-.2-1.1l-.6-.9c-.2-.3-.5-.5-.9-.6-.3-.1-.7-.2-1.1-.2-.6 0-1.1.1-1.5.4L214.2 47V25.9c0-.8-.3-1.5-.8-2s-1.2-.8-2-.8-1.5.3-2 .8c-.5.6-.8 1.2-.8 2v37.7c0 .8.3 1.4.8 2 .5.6 1.2.8 2 .8s1.4-.3 2-.8c.5-.6.8-1.2.8-2v-9.8l3.3-2.2 12.4 14.1c.5.5 1.1.7 1.9.7.4 0 .8-.1 1.1-.2.3-.1.6-.3.9-.6s.5-.6.6-.9c.2-.3.2-.7.2-1.1 0-.7-.3-1.4-.8-2l-11.5-13.1 11.3-7.4c.6-.5 1-1.2 1-2.3zM140.3 23c-.8 0-1.5.3-2 .8s-.8 1.2-.8 2v13.5c-2.7-2.2-5.9-3.3-9.4-3.3-4.2 0-7.7 1.5-10.6 4.4-2.9 3-4.4 6.5-4.4 10.7s1.5 7.8 4.4 10.7c2.9 3 6.5 4.4 10.6 4.4s7.7-1.5 10.6-4.4c2.9-2.9 4.4-6.5 4.4-10.7V25.8c0-.8-.3-1.5-.8-2s-1.2-.8-2-.8zm-3.5 31.9c-.5 1.1-1.2 2.2-2 3-.9.9-1.8 1.6-3 2.1-1.1.5-2.4.8-3.7.8-1.3 0-2.6-.3-3.7-.8s-2.1-1.2-3-2-1.5-1.9-2-3c-.5-1.2-.7-2.4-.7-3.7 0-1.3.2-2.5.7-3.7.5-1.2 1.2-2.2 2-3 .8-.9 1.8-1.5 3-2 1.1-.5 2.4-.8 3.7-.8 1.3 0 2.5.3 3.7.8 1.1.5 2.1 1.2 3 2.1.9.9 1.5 1.9 2 3s.7 2.4.7 3.7c.1 1.1-.2 2.3-.7 3.5zM172 40.5c-3-3-6.5-4.4-10.6-4.4-4.2 0-7.7 1.5-10.6 4.4-2.9 3-4.4 6.5-4.4 10.7s1.5 7.8 4.4 10.7c2.9 3 6.5 4.4 10.6 4.4s7.7-1.5 10.6-4.4c2.9-2.9 4.4-6.5 4.4-10.7 0-2.1-.4-4-1.1-5.8-.7-1.8-1.8-3.4-3.3-4.9zm-1.9 14.4c-.5 1.1-1.2 2.2-2 3-.9.9-1.8 1.6-3 2.1s-2.4.8-3.7.8c-1.3 0-2.6-.3-3.7-.8s-2.1-1.2-3-2-1.5-1.9-2-3c-.5-1.2-.7-2.4-.7-3.7 0-1.3.2-2.5.7-3.7.5-1.2 1.2-2.2 2-3 .8-.9 1.8-1.5 3-2 1.1-.5 2.4-.8 3.7-.8 1.3 0 2.5.3 3.7.8s2.1 1.2 3 2.1c.9.9 1.5 1.9 2 3s.7 2.4.7 3.7c0 1.1-.2 2.3-.7 3.5zm17.8-10.4c.9-.9 1.9-1.5 3-2s2.4-.7 3.7-.7c1.2 0 2.3.2 3.3.6 1 .4 2 1 2.9 1.8.5.4 1.1.7 1.8.7.8 0 1.5-.3 2-.8s.8-1.2.8-2-.3-1.6-1-2.1c-2.8-2.5-6-3.7-9.8-3.7-4.2 0-7.7 1.5-10.6 4.4-2.9 3-4.4 6.5-4.4 10.7s1.5 7.8 4.4 10.7c2.9 3 6.5 4.4 10.6 4.4 3.8 0 7-1.2 9.8-3.7.6-.6.9-1.3.9-2.1s-.3-1.5-.8-2-1.2-.8-2-.8c-.7 0-1.3.2-1.8.6-.9.8-1.8 1.4-2.8 1.7s-2.1.6-3.3.6c-1.3 0-2.5-.2-3.7-.7-1.1-.5-2.1-1.2-3-2s-1.5-1.9-2-3c-.5-1.2-.7-2.4-.7-3.7 0-1.3.2-2.6.7-3.7.5-1.4 1.2-2.4 2-3.2zm96.4 17.7c-1.1 0-2 .9-2 2s.9 2 2 2 2-.9 2-2c0-1.2-.9-2-2-2zm0 3.5c-.9 0-1.5-.7-1.5-1.6 0-.9.6-1.6 1.5-1.6s1.5.7 1.5 1.6c0 .9-.7 1.6-1.5 1.6z"/><path class="st4" d="M284.7 64.2c.2-.1.4-.3.4-.5s-.1-.3-.2-.4c-.1-.1-.3-.1-.7-.1-.3 0-.6 0-.8.1v2h.5v-.8h.2c.3 0 .4.1.4.3.1.2.1.4.2.5h.5c0-.1-.1-.2-.1-.5-.1-.4-.2-.5-.4-.6zm-.5-.1h-.2v-.6h.3c.3 0 .4.1.4.3-.1.2-.3.3-.5.3z"/></svg>