<svg version="1.1" id="Layer_1" xmlns="http://www.w3.org/2000/svg" xmlns:xlink="http://www.w3.org/1999/xlink" x="0" y="0" viewBox="0 0 200 200" xml:space="preserve"><style type="text/css">.st0{display:none}.st1{fill:none}.st1,.st2{display:inline}.st3{fill:#9a9a9a}.st4{fill:#333}.st5{fill:url(#XMLID_2_)}.st6{clip-path:url(#SVGID_2_)}.st7{fill:none}.st8{opacity:.66;fill:#b4b4b4;enable-background:new}.st9{clip-path:url(#SVGID_4_)}.st10{fill:url(#SVGID_5_)}.st11{fill:#8e8e8e}.st12{fill:#454545}.st13{fill:#5c6670}.st14{fill:#adb5bd}</style><g id="Layer_1_1_" class="st0"><path class="st1" d="M0 0h200v200H0z"/><g id="Livello_2" class="st2"><path d="M121.8 60.1c-9.7-9.4-18.9-18.6-21.6-29.1-2.7 10.4-11.9 19.6-21.6 29.1-14.4 14.4-30.8 30.8-30.8 55.4-.7 28.8 22.4 53 51.2 53.5s53-22.4 53.5-51.2v-2.2c.1-24.7-16.3-41.1-30.7-55.5zm-47.3 60.2c-1.5 2-3 4.2-4 6.5-.2.2-.5.7-1 .7h-.2c-1.2 0-2.5-2.2-2.5-2.2-.2-.5-.7-1.2-1-1.7l-.2-.5c-3.2-7-.5-16.7-.5-16.7 1.2-4.7 3.5-9.4 6.2-13.4 1.7-2.5 3.7-5 5.7-7.5l2.5 2.5 11.7 11.9c.5.5.5 1.2 0 1.7L79 115.3l-4.5 5zm26.1 34.3c-9.9 0-18.2-8.2-17.9-18.2 0-4.5 1.7-8.7 4.5-11.9 3.7-4.5 8.5-9 13.7-14.9 6 6.5 9.9 10.7 13.7 15.7.2.2.5.7.7 1.2 2 3 3.2 6.5 3.2 10.2.3 9.9-7.9 17.9-17.9 17.9zm34.1-28.9c-.2.7-1 1.2-1.7 1.5h-.2c-.7-.2-1.2-.7-1.7-1.2-3.2-4.7-6.7-9.2-10.7-13.2l-4.7-5-16.1-16.4c-3.2-3-6.5-6.5-9.4-9.7 0-.2-.2-.2-.2-.2-.5-.7-1-1.5-1.2-2.5v-.5c-.5-2.7.5-5.5 2.5-7.5 3-3 6.2-6.2 9.2-9.4 3.2 3.5 6.7 7 10.2 10.4 7 6.5 13.2 13.7 18.9 21.4 4.7 6.7 7.2 14.4 7.2 22.6-.6 3-1.1 6.5-2.1 9.7z" id="Livello_1-2"/></g></g><g id="Layer_2_1_" class="st0"><g id="W_Mark_2_" class="st2"><path d="M100 37c8.5 0 16.8 1.7 24.5 4.9 3.7 1.6 7.3 3.5 10.7 5.8 3.3 2.3 6.5 4.8 9.3 7.7 2.9 2.9 5.4 6 7.7 9.3 2.3 3.4 4.2 7 5.8 10.7 3.3 7.8 4.9 16 4.9 24.5s-1.7 16.8-4.9 24.5c-1.6 3.7-3.5 7.3-5.8 10.7-2.3 3.3-4.8 6.5-7.7 9.3-2.9 2.9-6 5.4-9.3 7.7-3.4 2.3-7 4.2-10.7 5.8-7.8 3.3-16 4.9-24.5 4.9s-16.8-1.7-24.5-4.9c-3.7-1.6-7.3-3.5-10.7-5.8-3.3-2.3-6.5-4.8-9.3-7.7-2.9-2.9-5.4-6-7.7-9.3-2.3-3.4-4.2-7-5.8-10.7-3.3-7.8-4.9-16-4.9-24.5s1.7-16.8 4.9-24.5c1.6-3.7 3.5-7.3 5.8-10.7 2.3-3.3 4.8-6.5 7.7-9.3 2.9-2.9 6-5.4 9.3-7.7 3.4-2.3 7-4.2 10.7-5.8 7.7-3.2 16-4.9 24.5-4.9m0-4c-37 0-67 30-67 67s30 67 67 67 67-30 67-67-30-67-67-67z"/><path d="M44.2 100c0 22.1 12.8 41.2 31.5 50.2L49 77.3c-3.1 6.9-4.8 14.6-4.8 22.7zm93.5-2.8c0-6.9-2.5-11.7-4.6-15.4-2.8-4.6-5.5-8.5-5.5-13.1 0-5.1 3.9-9.9 9.4-9.9h.7c-9.9-9.1-23.2-14.7-37.7-14.7-19.5 0-36.7 10-46.7 25.2 1.3 0 2.5.1 3.6.1 5.8 0 14.9-.7 14.9-.7 3-.2 3.4 4.2.4 4.6 0 0-3 .4-6.4.5l20.3 60.5 12.2-36.6-8.7-23.8c-3-.2-5.9-.5-5.9-.5-3-.2-2.7-4.8.4-4.6 0 0 9.2.7 14.7.7 5.8 0 14.9-.7 14.9-.7 3-.2 3.4 4.2.4 4.6 0 0-3 .4-6.4.5l20.2 60 5.8-18.3c2.5-8 4-13.6 4-18.4zm-36.7 7.7l-16.8 48.7c5 1.5 10.3 2.3 15.8 2.3 6.5 0 12.7-1.1 18.5-3.2-.1-.2-.3-.5-.4-.8l-17.1-47zm48-31.7c.2 1.8.4 3.7.4 5.7 0 5.7-1.1 12-4.2 20l-17.1 49.3c16.6-9.7 27.8-27.7 27.8-48.3-.1-9.6-2.5-18.7-6.9-26.7z"/></g><path class="st1" d="M0 0h200v200H0z"/></g><g id="Layer_3" class="st0"><path d="M135.1 126.1c-2 .7-3.6.8-5.7.8-17.5 0-43.3-61.3-43.3-81.6 0-7.5 1.8-10 4.3-12.1-21.5 2.5-47.2 10.3-55.5 20.3C33 55.9 32 59.9 32 64.9c0 31.8 33.9 104 57.8 104 11.2.1 29.9-18.1 45.3-42.8M123.8 31c22.1 0 44.2 3.6 44.2 16.1 0 25.4-16.1 56-24.3 56-14.6 0-32.9-40.8-32.9-61.1.2-9.2 3.8-11 13-11" class="st2"/><path class="st1" d="M0 0h200v200H0z"/></g><g id="Layer_4" class="st0"><path class="st1" d="M0 0h200v200H0z"/><path d="M32.7 76.7h23.7c7 .1 12 2.1 15.1 6s4.2 9.4 3.1 16.2c-.4 3.1-1.3 6.2-2.7 9.2-1.4 3-3.2 5.7-5.7 8.1-3 3.1-6.1 5-9.5 5.8s-6.8 1.2-10.4 1.2H35.7L32.3 140H20l12.7-63.3M43 86.8l-5.3 26.6c.4.1.7.1 1.1.1H40c5.7.1 10.4-.5 14.2-1.7s6.3-5.5 7.6-12.9c1.1-6.2 0-9.8-3.2-10.7-3.1-.9-7.1-1.4-11.8-1.3-.7.1-1.4.1-2 .1-.6-.1-1.2-.1-1.8-.2m45.6-27h12.2l-3.5 16.9h11c6 .1 10.5 1.4 13.5 3.7 3 2.4 3.9 6.8 2.7 13.5l-5.9 29.5h-12.4l5.7-28.2c.6-3 .4-5-.5-6.3-.9-1.2-3-1.9-6.1-1.9h-9.9l-7.3 36.4H75.9l12.7-63.6m49 16.9h23.7c7 .1 12 2.1 15.1 6s4.2 9.4 3.1 16.2c-.4 3.1-1.3 6.2-2.7 9.2s-3.2 5.7-5.7 8.1c-3 3.1-6.1 5-9.5 5.8s-6.8 1.2-10.4 1.2h-10.6l-3.4 16.8H125l12.6-63.3M148 86.8l-5.3 26.6c.4.1.7.1 1.1.1h1.2c5.7.1 10.4-.5 14.2-1.7s6.3-5.5 7.6-12.9c1.1-6.2 0-9.8-3.2-10.7-3.1-.9-7.1-1.4-11.8-1.3-.7.1-1.4.1-2 .1-.6-.1-1.3-.1-1.8-.2" class="st2"/></g><g id="Layer_5" class="st0"><path class="st1" d="M0 0h200v200H0z"/><path class="st2" d="M157 67.1v65.8l-16.3 9.4V76.5L99.9 53 59.2 76.5l.1 65.8-16.3-9.4V67.1l57.1-32.9L157 67.1zm-48.9 75.2L100 147l-8.2-4.7V76.5l-16.3 9.4v65.8l24.4 14.1 24.5-14.1V85.9l-16.3-9.4v65.8z"/></g><g id="Layer_6" class="st0"><path class="st1" d="M0 0h200v200H0z"/><g class="st2"><path class="st3" d="M99.2 142.9c-.5 0-.9-.1-1.3-.4l-4.2-2.5c-.6-.4-.3-.5-.1-.6.8-.3 1-.4 1.9-.9.1-.1.2 0 .3 0l3.2 1.9c.1.1.3.1.4 0l12.6-7.3c.1-.1.2-.2.2-.3v-14.6c0-.1-.1-.3-.2-.3l-12.6-7.3c-.1-.1-.3-.1-.4 0L86.4 118c-.1.1-.2.2-.2.3v14.6c0 .1.1.3.2.3l3.5 2c1.9.9 3-.2 3-1.3v-14.4c0-.2.2-.4.4-.4h1.6c.2 0 .4.2.4.4V134c0 2.5-1.4 3.9-3.7 3.9-.7 0-1.3 0-2.9-.8l-3.3-1.9c-.8-.5-1.3-1.4-1.3-2.3v-14.6c0-.9.5-1.8 1.3-2.3l12.6-7.3c.8-.5 1.9-.5 2.7 0l12.6 7.3c.8.5 1.3 1.4 1.3 2.3v14.6c0 .9-.5 1.8-1.3 2.3l-12.6 7.3c-.6.3-1 .4-1.5.4z"/><path class="st3" d="M103.1 132.8c-5.5 0-6.7-2.5-6.7-4.7 0-.2.2-.4.4-.4h1.6c.2 0 .3.1.4.3.2 1.7 1 2.5 4.3 2.5 2.7 0 3.8-.6 3.8-2 0-.8-.3-1.4-4.5-1.8-3.5-.3-5.6-1.1-5.6-3.9 0-2.6 2.2-4.1 5.8-4.1 4.1 0 6.1 1.4 6.3 4.4 0 .1 0 .2-.1.3-.1.1-.2.1-.3.1h-1.6c-.2 0-.3-.1-.4-.3-.4-1.8-1.4-2.3-3.9-2.3-2.9 0-3.2 1-3.2 1.8 0 .9.4 1.2 4.3 1.7s5.7 1.2 5.7 4-2.3 4.4-6.3 4.4zm18.2-15.3c0 1.3-1.1 2.4-2.4 2.4s-2.4-1.1-2.4-2.4c0-1.4 1.1-2.4 2.4-2.4 1.3 0 2.4 1 2.4 2.4zm-4.4 0c0 1.1.9 2.1 2 2.1s2.1-.9 2.1-2.1c0-1.1-.9-2-2.1-2-1.1 0-2 .9-2 2zm1.1-1.3h.9c.3 0 1 0 1 .7 0 .5-.3.6-.5.7.4 0 .4.3.5.6 0 .2.1.6.1.7h-.6c0-.1-.1-.8-.1-.9 0-.2-.1-.2-.3-.2h-.5v1.1h-.5v-2.7zm.5 1.1h.4c.3 0 .4-.2.4-.4 0-.4-.3-.4-.4-.4h-.4v.8z"/><path class="st4" d="M60 85.8c0-.6-.3-1.1-.8-1.4l-13.4-7.7c-.2-.1-.5-.2-.7-.2H45c-.3 0-.5.1-.7.2l-13.4 7.7c-.5.3-.8.8-.8 1.4v20.8c0 .3.2.6.4.7.2.1.6.1.8 0l8-4.6c.5-.3.8-.8.8-1.4v-9.7c0-.6.3-1.1.8-1.4l3.4-2c.3-.1.5-.2.8-.2s.6.1.8.2l3.4 2c.5.3.8.8.8 1.4v9.7c0 .6.3 1.1.8 1.4l8 4.6c.2.1.6.1.8 0s.4-.4.4-.7L60 85.8zm64.5-28.6c-.3-.1-.6-.1-.8 0-.2.1-.4.4-.4.7v20.6c0 .2-.1.4-.3.5-.2.1-.4.1-.6 0l-3.4-1.9c-.5-.3-1.1-.3-1.6 0L104 84.8c-.5.3-.8.8-.8 1.4v15.5c0 .6.3 1.1.8 1.4l13.4 7.7c.5.3 1.1.3 1.6 0l13.4-7.7c.5-.3.8-.8.8-1.4V63.1c0-.6-.3-1.1-.8-1.4l-7.9-4.5zm-1.2 39.4c0 .1-.1.3-.2.4l-4.6 2.7c-.1.1-.3.1-.4 0l-4.6-2.7c-.1-.1-.2-.2-.2-.4v-5.3c0-.1.1-.3.2-.4l4.6-2.7c.1-.1.3-.1.4 0l4.6 2.7c.1.1.2.2.2.4v5.3zm45.9-5.5c.5-.3.8-.8.8-1.4V86c0-.6-.3-1.1-.8-1.4l-13.3-7.7c-.5-.3-1.1-.3-1.6 0l-13.4 7.7c-.5.3-.8.8-.8 1.4v15.5c0 .6.3 1.1.8 1.4l13.3 7.6c.5.3 1.1.3 1.6 0l8.1-4.5c.3-.1.4-.4.4-.7 0-.3-.2-.6-.4-.7l-13.5-7.7c-.3-.1-.4-.4-.4-.7v-4.9c0-.3.2-.6.4-.7l4.2-2.4c.2-.1.6-.1.8 0l4.2 2.4c.3.1.4.4.4.7v3.8c0 .3.2.6.4.7.3.1.6.1.8 0l8-4.7z"/><path class="st3" d="M154.9 90.4c.1-.1.2-.1.3 0l2.6 1.5c.1.1.2.2.2.3v3c0 .1-.1.2-.2.3l-2.6 1.5c-.1.1-.2.1-.3 0l-2.6-1.5c-.1-.1-.2-.2-.2-.3v-3c0-.1.1-.2.2-.3l2.6-1.5z"/><linearGradient id="XMLID_2_" gradientUnits="userSpaceOnUse" x1="66.764" y1="106.3" x2="96.564" y2="106.3" gradientTransform="matrix(1 0 0 -1 0 200)"><stop offset=".005" stop-color="#000"/><stop offset=".194" stop-color="#171717"/><stop offset=".542" stop-color="#3d3d3d"/><stop offset=".824" stop-color="#545454"/><stop offset="1" stop-color="#5c5c5c"/></linearGradient><path id="XMLID_67_" class="st5" d="M80.9 76.9c.5-.3 1.1-.3 1.6 0l13.3 7.7c.5.3.8.8.8 1.4v15.4c0 .6-.3 1.1-.8 1.4l-13.3 7.7c-.5.3-1.1.3-1.6 0l-13.3-7.7c-.5-.3-.8-.8-.8-1.4V86c0-.6.3-1.1.8-1.4l13.3-7.7z"/><defs><path id="SVGID_1_" d="M82.5 76.9c-.5-.3-1.1-.3-1.6 0l-13.3 7.7c-.5.3-.8.8-.8 1.4v15.4c0 .6.3 1.1.8 1.4l13.3 7.7c.5.3 1.1.3 1.6 0l13.3-7.7c.5-.3.8-.8.8-1.4V86c0-.6-.3-1.1-.8-1.4l-13.3-7.7z"/></defs><clipPath id="SVGID_2_"><use xlink:href="#SVGID_1_" overflow="visible"/></clipPath><g class="st6"><path class="st7" d="M80.8 76.9l-13.3 7.7c-.5.3-.8.8-.8 1.4v15.4c0 .4.1.7.4 1l15-25.6c-.5-.1-.9-.1-1.3.1zm1.3 33.7c.1 0 .2-.1.3-.1l13.3-7.7c.5-.3.7-.8.7-1.4V86c0-.4-.1-.7-.3-1l-14 25.6z"/><path class="st8" d="M95.7 84.6l-13.2-7.7c-.1-.1-.3-.1-.4-.2l-15 25.6c.1.2.3.3.5.4l13.3 7.7c.4.2.9.3 1.3.1l14-25.6c-.2-.1-.3-.2-.5-.3z"/></g><defs><path id="SVGID_3_" d="M82.5 76.9c-.5-.3-1.1-.3-1.6 0l-13.3 7.7c-.5.3-.8.8-.8 1.4v15.4c0 .6.3 1.1.8 1.4l13.3 7.7c.5.3 1.1.3 1.6 0l13.3-7.7c.5-.3.8-.8.8-1.4V86c0-.6-.3-1.1-.8-1.4l-13.3-7.7z"/></defs><clipPath id="SVGID_4_"><use xlink:href="#SVGID_3_" overflow="visible"/></clipPath><g class="st9"><path class="st7" d="M67.7 84.5l-.2.1c-.5.3-.8.8-.8 1.4v15.4c0 .6.3 1.1.8 1.4l13.3 7.7c.4.2.8.3 1.2.2L67.7 84.5zM96.4 86c0-.6-.2-1.1-.7-1.4l-13.2-7.7c-.1-.1-.2-.1-.4-.2l14.4 24.5V86h-.1z"/><linearGradient id="SVGID_5_" gradientUnits="userSpaceOnUse" x1="66.558" y1="106.33" x2="97.31" y2="106.33" gradientTransform="matrix(1 0 0 -1 0 200)"><stop offset="0" stop-color="#5c5c5c"/><stop offset=".176" stop-color="#545454"/><stop offset=".458" stop-color="#3d3d3d"/><stop offset=".806" stop-color="#171717"/><stop offset=".995" stop-color="#000"/></linearGradient><path class="st10" d="M82.4 110.4l13.3-7.7c.5-.3.7-.8.7-1.4v-.1L82.1 76.8c-.4-.1-.9-.1-1.2.2l-13.2 7.6 14.3 26c.2 0 .3-.1.4-.2z"/></g></g></g><g id="Layer_7" class="st0"><path class="st1" d="M0 0h200v200H0z"/><g class="st2"><path d="M163 100c0-8.3-10.5-16.3-26.5-21.2 3.7-16.3 2.1-29.3-5.2-33.5-1.7-1-3.6-1.4-5.7-1.4-7.1 0-16.3 5-25.7 13.8C90.6 49 81.4 44 74.3 44c-2.2 0-4.1.5-5.8 1.4-7.2 4.2-8.8 17.1-5.1 33.4-16 5-26.4 12.9-26.4 21.2s10.5 16.3 26.5 21.2c-3.7 16.3-2.1 29.3 5.2 33.5 1.7 1 3.6 1.4 5.8 1.4 7.1 0 16.3-5 25.7-13.8 9.3 8.7 18.6 13.7 25.7 13.7 2.2 0 4.1-.5 5.8-1.4 7.2-4.2 8.8-17.1 5.1-33.4 15.8-5 26.2-12.9 26.2-21.2zm-37.4-50.4c1.2 0 2.1.3 2.9.7 3.5 2 5 9.6 3.8 19.4-.3 2.4-.7 5-1.3 7.6-5-1.2-10.5-2.2-16.3-2.8-3.5-4.8-7.1-9.1-10.7-12.8 8.4-7.8 16.2-12.1 21.6-12.1zm-48.4 63.6c1.2 2.1 2.4 4.1 3.7 6-3.6-.5-7.2-1.2-10.5-2 1-3.3 2.1-6.7 3.5-10.1 1 2 2.1 4 3.3 6.1zm-6.9-30.3c3.4-.8 6.9-1.5 10.6-2-1.3 2-2.5 4-3.7 6.1-1.2 2-2.3 4-3.3 6.1-1.4-3.4-2.6-6.9-3.6-10.2zm6.6 17.2c1.6-3.4 3.4-6.9 5.3-10.2 2-3.5 4.1-6.8 6.2-9.8 3.8-.3 7.7-.5 11.6-.5s7.8.2 11.6.5c2.1 3.1 4.2 6.3 6.2 9.8 2 3.4 3.7 6.8 5.3 10.2-1.6 3.4-3.4 6.9-5.3 10.2-2 3.5-4.1 6.8-6.2 9.8-3.8.3-7.7.5-11.6.5s-7.8-.2-11.6-.5c-2.1-3.1-4.2-6.3-6.2-9.8-1.9-3.4-3.7-6.8-5.3-10.2zm45.9 13c1.2-2.1 2.3-4.1 3.3-6.2 1.4 3.4 2.6 6.9 3.5 10.2-3.4.8-6.9 1.5-10.6 2.1 1.3-2 2.6-4 3.8-6.1zm-.1-26.2c-1.2-2.1-2.4-4.1-3.7-6 3.6.5 7.2 1.2 10.5 2-1 3.3-2.1 6.7-3.5 10.1-1-2-2.1-4.1-3.3-6.1zm-15.6-13c-2.3-.1-4.7-.2-7.1-.2s-4.8.1-7.1.2c2.3-3 4.7-5.8 7.1-8.2 2.3 2.5 4.7 5.2 7.1 8.2zM71.3 50.4c.8-.5 1.8-.7 3-.7 5.3 0 13.2 4.2 21.6 12-3.6 3.8-7.2 8.1-10.6 12.8-5.8.6-11.3 1.6-16.3 2.8-.6-2.6-1-5.1-1.3-7.4-1.3-9.8.2-17.5 3.6-19.5zm-6.4 65.2c-2.5-.8-5-1.7-7.2-2.6-9.1-3.9-15-9-15-13s5.9-9.1 15-13c2.2-1 4.6-1.8 7.1-2.6 1.5 5 3.4 10.3 5.8 15.6-2.4 5.4-4.3 10.6-5.7 15.6zm9.5 34.8c-1.2 0-2.1-.3-2.9-.7-3.5-2-5-9.6-3.8-19.4.3-2.4.7-5 1.3-7.6 5 1.2 10.5 2.2 16.3 2.8 3.5 4.8 7.1 9.1 10.7 12.8-8.4 7.8-16.3 12.1-21.6 12.1zm25.7-16.1c-2.4-2.5-4.8-5.2-7.1-8.2 2.3.1 4.7.2 7.1.2s4.8-.1 7.1-.2c-2.4 3-4.8 5.7-7.1 8.2zm28.6 15.3c-.8.5-1.8.7-3 .7-5.3 0-13.2-4.2-21.6-12 3.6-3.8 7.2-8.1 10.6-12.8 5.8-.6 11.3-1.6 16.3-2.8.6 2.6 1.1 5.1 1.3 7.5 1.3 9.7-.2 17.4-3.6 19.4zm13.6-36.6c-2.2 1-4.6 1.8-7.1 2.6-1.5-5-3.4-10.3-5.8-15.6 2.4-5.3 4.3-10.6 5.7-15.6 2.5.8 5 1.7 7.2 2.6 9.1 3.9 15 9 15 13s-5.9 9.2-15 13z"/><circle cx="100" cy="100" r="11.7"/></g></g><g id="Layer_8" class="st0"><g class="st2"><path class="st11" d="M113.5 49.2L100 72.7 86.5 49.2H41.4L100 150.8l58.6-101.6z"/><path class="st12" d="M113.5 49.2L100 72.7 86.5 49.2H64.8l35.2 61 35.2-61z"/></g><path class="st1" d="M0 0h200v200H0z"/></g><g id="Layer_9"><path id="path1948" class="st13" d="M99.3 43.8c-4.6 0-9 .4-12.8 1.1-11.3 2-13.4 6.2-13.4 13.9V69h26.8v3.4H63.1c-7.8 0-14.6 4.7-16.8 13.6-2.5 10.2-2.6 16.6 0 27.2 1.9 7.9 6.5 13.6 14.3 13.6h9.2v-12.2c0-8.8 7.7-16.7 16.8-16.7h26.8c7.5 0 13.4-6.1 13.4-13.6V58.8c0-7.3-6.1-12.7-13.4-13.9-4.7-.8-9.5-1.1-14.1-1.1zM84.8 52c2.8 0 5 2.3 5 5.1s-2.3 5.1-5 5.1c-2.8 0-5-2.3-5-5.1s2.3-5.1 5-5.1z"/><path id="path1950" class="st14" d="M130.1 72.5v11.9c0 9.2-7.8 17-16.7 17H86.5c-7.3 0-13.4 6.3-13.4 13.6v25.5c0 7.3 6.3 11.5 13.4 13.6 8.5 2.5 16.6 2.9 26.8 0 6.8-2 13.4-5.9 13.4-13.6v-10.2H99.9v-3.4h40.2c7.8 0 10.7-5.4 13.4-13.6 2.8-8.4 2.7-16.5 0-27.2-1.9-7.8-5.6-13.6-13.4-13.6h-10zM115 137.1c2.8 0 5 2.3 5 5.1s-2.3 5.1-5 5.1c-2.8 0-5-2.3-5-5.1s2.2-5.1 5-5.1z"/></g></svg>