<svg version="1.1" id="Layer_1" xmlns="http://www.w3.org/2000/svg" xmlns:xlink="http://www.w3.org/1999/xlink" x="0" y="0" viewBox="0 0 800 225" xml:space="preserve"><style type="text/css">.st0{clip-path:url(#SVGID_2_);fill:#fff}</style><defs><path id="SVGID_1_" d="M0 0h800v225H0z"/></defs><clipPath id="SVGID_2_"><use xlink:href="#SVGID_1_" overflow="visible"/></clipPath><path class="st0" d="M58.9 45.8h7v33.3l-.3 15.1c7.8-6.6 17.1-12 26.6-12 20.5 0 30.8 15.4 30.8 39.2 0 26.1-15.9 41.5-34 41.5-7.4 0-15.9-3.5-23.1-9.1h-.3l-.8 7.2h-5.9V45.8zm29.8 110.8c15.5 0 26.8-14.4 26.8-35.2 0-18.9-6.7-33-24.3-33-7.7 0-16 4.5-25.2 12.7v45.7c8.5 7.1 16.8 9.8 22.7 9.8m89.4-43.8c.3-11.7-3-24.3-18.1-24.3-10.4 0-19.4 5.1-24.5 9l-3.2-5.3c5.4-3.8 16-9.9 28.5-9.9 18.3 0 24.3 13.1 24.3 29.6V161h-5.9l-.8-9.9h-.3c-7.8 6.2-17.1 11.9-27.2 11.9-12.2 0-22.4-6.6-22.4-21.1 0-17.1 15.5-25.3 49.6-29.1m-26.1 44c8.8 0 16.7-4.3 26.1-12.5v-26.1c-31.6 3.7-42.3 11.1-42.3 23.2 0 11.1 7.4 15.4 16.2 15.4m76.9-74.6c10.6 0 17.5 4.6 22.6 9.5l-4.2 5c-5-4.6-10.7-8.2-18.3-8.2-15.7 0-27.9 13.9-27.9 34.3 0 20.2 11.1 34 27.9 34 8.2 0 15.2-4 20.5-8.8l3.7 4.8c-6.6 5.9-14.7 10.3-24.5 10.3-19.9 0-34.9-14.7-34.9-40.2 0-26 16.4-40.7 35.1-40.7m34-36.4h7v84.9h.3l38-46.6h8.2l-25 30.4 29.1 46.5h-7.8l-25.5-41.2-17.3 20.2v21h-7z"/><path class="st0" d="M350.6 82.2c9.3 0 15.5 3.5 23.2 9.5l-.3-14.1V45.8h7V161h-6.1l-.6-9.9h-.5c-6.2 6.2-14.7 11.9-25 11.9-19.4 0-31.9-14.3-31.9-40.2.1-24.9 15.9-40.6 34.2-40.6m-1.3 74.4c8.5 0 16-4.5 24.2-12.7V98.3c-8.2-7.2-14.9-9.9-22.4-9.9-15.4 0-27.1 14.9-27.1 34.3 0 20.3 9 33.9 25.3 33.9m41.8-72.5h6.1l.6 14.3h.5c5.1-9.5 12.7-16.2 21.8-16.2 2.9 0 5.1.3 7.7 1.6l-1.6 6.4c-2.6-1-4-1.3-7-1.3-6.9 0-15.1 5.3-21 19.7V161h-7V84.1zm68.9-1.9c18.6 0 34.6 14.7 34.6 40.5 0 25.5-16 40.2-34.6 40.2-18.4 0-34.4-14.7-34.4-40.2 0-25.8 16-40.5 34.4-40.5m0 74.4c15.5 0 27.2-13.8 27.2-34 0-20.3-11.7-34.3-27.2-34.3s-27.1 13.9-27.1 34.3c0 20.3 11.6 34 27.1 34m51.3 11.1v28h-7V84.1h6.1l.6 9.6h.5c7.5-5.9 16.7-11.5 26.1-11.5 20.5 0 30.8 15.4 30.8 39.2 0 26.1-15.9 41.5-34 41.5-7.2 0-15.1-3.5-23.1-9.5v14.3zm22.7-11.1c15.5 0 26.8-14.4 26.8-35.2 0-18.9-6.7-33-24.3-33-7.7 0-15.9 4.5-25.2 12.7v45.7c8.8 7.1 16.8 9.8 22.7 9.8m207 8.4v-61.4L679.7 165z"/><path class="st0" d="M618 42v123h62v-61h61V42z"/></svg>