<svg version="1.1" id="Layer_1" xmlns="http://www.w3.org/2000/svg" x="0" y="0" viewBox="0 0 179.1 206" xml:space="preserve"><style type="text/css">.st0{fill:#26867d}.st1{fill:#7fc7c7}.st2{fill:#2fa46a}.st3{fill:#80ba55}.st4{fill:#74b437}.st5{fill:#b6d180}.st6{fill:#3ab9ce}.st7{fill:#48ab4f}.st8{fill:#5a7cb5}.st9{fill:#366d49}.st10{fill:#289dd6}.st11{fill:#233a6f}.st12{fill:#2476b8}.st13{fill:#2b8da7}.st14{fill:#25539c}.st15{fill:#19617f}.st16{fill:#6fc5d5}.st17{fill:#1e4685}.st18{fill:#1c6594}.st19{fill:#232f57}.st20{fill:#1e6b98}.st21{fill:#90c6e6}.st22{fill:#2a3478}.st23{fill:#32afab}.st24{fill:#4fb9ba}.st25{fill:#86bdda}.st26{fill:#35b2a7}.st27{fill:#1967ac}.st28{fill:#90b232}.st29{fill:#18b2bc}.st30{fill:#d83287}.st31{fill:#d32260}.st32{fill:#f19874}.st33{fill:#e65431}.st34{fill:#d24730}.st35{fill:#512a75}.st36{fill:#343184}.st37{fill:#2481b3}.st38{fill:#226d97}.st39{fill:#38a6dc}.st40{fill:#bbd9ec}.st41{fill:#1573b4}.st42{fill:#0e6caf}.st43{fill:#3f768a}.st44{fill:#105579}.st45{fill:#e1aecf}.st46{fill:#d17daf}.st47{fill:#e32d70}.st48{fill:#f19f8c}.st49{fill:#ab3185}.st50{fill:#343687}.st51{fill:#e64f80}.st52{fill:#58367a}.st53{fill:#c04f94}.st54{fill:#aa2d84}.st55{fill:#c2599a}.st56{fill:#7b4e96}.st57{fill:#cad338}.st58{fill:#e0ebf4}.st59{fill:#32acc6}.st60{fill:#a8cdde}.st61{fill:#97c4dc}.st62{fill:#2a59a1}.st63{fill:#2777b8}.st64{fill:#1d417e}.st65{fill:#257fba}.st66{fill:#6598ac}.st67{fill:#bed5e6}.st68{fill:#2178a8}.st69{fill:#1473b4}.st70{fill:#2a3474}.st71{fill:#195482}.st72{fill:#b1c2df}.st73{fill:#b9dcd4}.st74{fill:#75c2b4}.st75{fill:#8fced4}.st76{fill:#31a896}.st77{fill:#1e7046}.st78{fill:#27563d}.st79{fill:#af3b8a}.st80{fill:#9f2a7e}.st81{fill:#ea81a8}.st82{fill:#4e3e8c}.st83{fill:#803989}.st84{fill:#3c2a6f}.st85{fill:#8b7aa3}.st86{fill:#6a418e}.st87{fill:#4f3285}.st88{fill:#7f5c9f}.st89{fill:#4d4f98}.st90{fill:#4f6196}.st91{fill:#dd2082}.st92{fill:#e5447b}.st93{fill:#ea6c30}.st94{fill:#f4a767}.st95{fill:#f6b242}.st96{fill:#cb94b2}.st97{fill:#ed8131}.st98{fill:#df5a33}.st99{fill:#df2e4e}.st100{fill:none}.st101{fill:#fff}</style><path class="st0" d="M35.9 31v20.5l17.8-10.2L35.9 31z"/><path class="st1" d="M35.9 51.4V31l-18 10.2 18 10.2z"/><path class="st2" d="M35.9 51.4v20.7l17.8-10.2-17.8-10.5z"/><path class="st3" d="M35.9 72.2V51.4l-18 10.5 18 10.3z"/><path class="st4" d="M35.9 72.2v20.5l17.8-10.2-17.8-10.3z"/><path class="st5" d="M35.9 92.6V72.2l-18 10.2 18 10.2z"/><path class="st6" d="M35.9 92.6v20.7l17.8-10.2-17.8-10.5z"/><path class="st7" d="M35.9 113.4V92.6l-18 10.5 18 10.3z"/><path class="st8" d="M35.9 113.4v20.5l17.8-10.2-17.8-10.3z"/><path class="st9" d="M35.9 133.8v-20.5l-18 10.2 18 10.3z"/><path class="st10" d="M35.9 133.8v20.7L53.7 144l-17.8-10.2z"/><path class="st11" d="M35.9 154.3v-20.5l-18 10.2 18 10.3z"/><path class="st12" d="M35.9 154.6V175l17.8-10.2-17.8-10.2z"/><path class="st13" d="M35.9 175v-20.5l-18 10.2 18 10.3z"/><path class="st14" d="M71.5 10.2V31l18-10.5-18-10.3z"/><path class="st15" d="M71.5 31V10.2L53.7 20.7 71.5 31z"/><path class="st14" d="M71.5 31v20.5l18-10.2-18-10.3z"/><path class="st16" d="M71.5 51.4V31L53.7 41.2l17.8 10.2z"/><path class="st17" d="M71.5 51.4v20.7l18-10.5-18-10.2z"/><path class="st13" d="M71.5 72.2V51.4L53.7 61.9l17.8 10.3z"/><path class="st18" d="M71.5 72.2v20.5l18-10.2-18-10.3z"/><path class="st19" d="M71.5 92.6V72.2L53.7 82.4l17.8 10.2z"/><path class="st20" d="M71.5 92.6v20.7l18-10.5-18-10.2z"/><path class="st21" d="M71.5 113.4V92.6l-17.8 10.5 17.8 10.3z"/><path class="st8" d="M71.5 113.4v20.5l18-10.2-18-10.3z"/><path class="st22" d="M71.5 133.8v-20.5l-17.8 10.2 17.8 10.3z"/><path class="st8" d="M71.5 133.8v20.7l18-10.5-18-10.2z"/><path class="st14" d="M71.5 154.6v-20.7l-17.8 10.2 17.8 10.5z"/><path class="st23" d="M71.5 154.6V175l18-10.2-18-10.2z"/><path class="st17" d="M71.5 175v-20.5l-17.8 10.2L71.5 175z"/><path class="st24" d="M71.5 175v20.7l18-10.5-18-10.2z"/><path class="st25" d="M71.5 195.8V175l-17.8 10.2 17.8 10.6z"/><path class="st26" d="M0 51.7v20.5L17.8 62 0 51.7z"/><path class="st1" d="M0 72.2v20.7l17.8-10.5L0 72.2z"/><path class="st27" d="M0 92.9v20.5l17.8-10.2L0 92.9z"/><path class="st28" d="M0 113.4v20.7l17.8-10.5L0 113.4z"/><path class="st29" d="M0 133.8v20.7l17.8-10.2L0 133.8z"/><path class="st30" d="M178.9 71.9V51.4l-17.8 10.2 17.8 10.3z"/><path class="st31" d="M178.9 92.6V71.9l-17.8 10.5 17.8 10.2z"/><path class="st32" d="M178.9 113.1V92.6l-17.8 10.2 17.8 10.3z"/><path class="st33" d="M178.9 133.8v-20.7l-17.8 10.5 17.8 10.2z"/><path class="st34" d="M178.9 154.3v-20.5L161.1 144l17.8 10.3z"/><path class="st35" d="M107.4 10.2V31l17.8-10.5-17.8-10.3z"/><path class="st36" d="M107.4 31V10.2L89.6 20.7 107.4 31zm0 0v20.5l17.8-10.2L107.4 31z"/><path class="st37" d="M107.4 51.4V31L89.6 41.2l17.8 10.2z"/><path class="st8" d="M107.4 51.4v20.7l17.8-10.5-17.8-10.2z"/><path class="st37" d="M107.4 72.2V51.4L89.6 61.9l17.8 10.3z"/><path class="st8" d="M107.4 72.2v20.5l17.8-10.2-17.8-10.3z"/><path class="st38" d="M107.4 92.6V72.2L89.6 82.4l17.8 10.2z"/><path class="st39" d="M107.4 92.6v20.7l17.8-10.5-17.8-10.2z"/><path class="st15" d="M107.4 113.4V92.6l-17.8 10.5 17.8 10.3z"/><path class="st8" d="M107.4 113.4v20.5l17.8-10.2-17.8-10.3z"/><path class="st40" d="M107.4 133.8v-20.5l-17.8 10.2 17.8 10.3z"/><path class="st8" d="M107.4 133.8v20.7l17.8-10.5-17.8-10.2z"/><path class="st19" d="M107.4 154.6v-20.7l-17.8 10.2 17.8 10.5z"/><path class="st41" d="M107.4 154.6V175l17.8-10.2-17.8-10.2z"/><path class="st42" d="M107.4 175v-20.5l-17.8 10.2 17.8 10.3z"/><path class="st43" d="M107.4 175v20.5l17.8-10.2-17.8-10.3z"/><path class="st44" d="M107.4 195.5V175l-17.8 10.2 17.8 10.3z"/><path class="st45" d="M143.3 31v20.5l17.8-10.2L143.3 31z"/><path class="st46" d="M143.3 51.4V31l-18 10.2 18 10.2z"/><path class="st34" d="M143.3 51.4v20.7l17.8-10.5-17.8-10.2z"/><path class="st47" d="M143.3 72.2V51.4l-18 10.2 18 10.6z"/><path class="st48" d="M143.3 72.2v20.5l17.8-10.2-17.8-10.3z"/><path class="st49" d="M143.3 92.6V72.2l-18 10.2 18 10.2z"/><path class="st46" d="M143.3 92.6v20.5l17.8-10.2-17.8-10.3z"/><path class="st50" d="M143.3 113.1V92.6l-18 10.2 18 10.3z"/><path class="st51" d="M143.3 113.1v20.7l17.8-10.2-17.8-10.5z"/><path class="st52" d="M143.3 133.8v-20.7l-18 10.5 18 10.2z"/><path class="st53" d="M143.3 133.8v20.5l17.8-10.2-17.8-10.3z"/><path class="st54" d="M143.3 154.3v-20.5l-18 10.2 18 10.3z"/><path class="st55" d="M143.3 154.3V175l17.8-10.5-17.8-10.2z"/><path class="st56" d="M143.3 175v-20.7l-18 10.5 18 10.2z"/><path class="st3" d="M53.7 20.7v20.5L71.5 31 53.7 20.7z"/><path class="st7" d="M53.7 41.2V20.7L35.9 31l17.8 10.2z"/><path class="st15" d="M53.7 41.2v20.7l17.8-10.5-17.8-10.2z"/><path class="st0" d="M53.7 61.9V41.2L35.9 51.4l17.8 10.5z"/><path class="st8" d="M53.7 61.9v20.5l17.8-10.2-17.8-10.3z"/><path class="st57" d="M53.7 82.4V61.9L35.9 72.2l17.8 10.2z"/><path class="st58" d="M53.7 82.4v20.7l17.8-10.5-17.8-10.2z"/><path class="st13" d="M53.7 103.1V82.4L35.9 92.6l17.8 10.5z"/><path class="st37" d="M53.7 103.1v20.5l17.8-10.2-17.8-10.3z"/><path class="st23" d="M53.7 123.6v-20.5l-17.8 10.2 17.8 10.3z"/><path class="st59" d="M53.7 123.6v20.5l17.8-10.2-17.8-10.3z"/><path class="st13" d="M53.7 144.1v-20.5l-17.8 10.2 17.8 10.3z"/><path class="st8" d="M53.7 144.1v20.7l17.8-10.2-17.8-10.5z"/><path class="st19" d="M53.7 164.8v-20.7l-17.8 10.5 17.8 10.2z"/><path class="st60" d="M53.7 164.8v20.5L71.5 175l-17.8-10.2z"/><path class="st61" d="M53.7 185.3v-20.5L35.9 175l17.8 10.3z"/><path class="st62" d="M89.6 0v20.5l17.8-10.2L89.6 0z"/><path class="st63" d="M89.6 20.5V0L71.7 10.2l17.9 10.3z"/><path class="st11" d="M89.6 20.5v20.7L107.4 31 89.6 20.5z"/><path class="st19" d="M89.6 41.2V20.5L71.7 31l17.9 10.2z"/><path class="st22" d="M89.6 41.2v20.5l17.8-10.2-17.8-10.3z"/><path class="st64" d="M89.6 61.7V41.2L71.7 51.4l17.9 10.3z"/><path class="st65" d="M89.6 61.7v20.7l17.8-10.2-17.8-10.5z"/><path class="st10" d="M89.6 82.4V61.7L71.7 72.2l17.9 10.2z"/><path class="st66" d="M89.6 82.4v20.5l17.8-10.2-17.8-10.3z"/><path class="st67" d="M89.6 102.9V82.4L71.7 92.6l17.9 10.3z"/><path class="st14" d="M89.6 102.9v20.7l17.8-10.5-17.8-10.2z"/><path class="st68" d="M89.6 123.6v-20.7l-17.8 10.5 17.8 10.2z"/><path class="st69" d="M89.6 123.6v20.5l17.8-10.2-17.8-10.3z"/><path class="st70" d="M89.6 144.1v-20.5l-17.8 10.2 17.8 10.3z"/><path class="st43" d="M89.6 144.1v20.7l17.8-10.5-17.8-10.2z"/><path class="st71" d="M89.6 164.8v-20.7l-17.8 10.5 17.8 10.2z"/><path class="st11" d="M89.6 164.8v20.5l17.8-10.2-17.8-10.3z"/><path class="st59" d="M89.6 185.3v-20.5L71.7 175l17.9 10.3z"/><path class="st72" d="M89.6 185.3V206l17.8-10.5-17.8-10.2z"/><path class="st41" d="M89.6 206v-20.7l-17.8 10.5L89.6 206z"/><path class="st73" d="M18 41.2v20.7l17.8-10.5L18 41.2z"/><path class="st74" d="M18 61.9V41.2L0 51.7l18 10.2z"/><path class="st75" d="M18 61.9v20.5l17.8-10.2L18 61.9z"/><path class="st76" d="M18 82.4V61.9L0 72.2l18 10.2z"/><path class="st3" d="M18 82.4v20.7l17.8-10.5L18 82.4z"/><path class="st6" d="M18 103.1V82.4L0 92.9l18 10.2z"/><path class="st2" d="M18 103.1v20.5l17.8-10.2L18 103.1z"/><path class="st0" d="M18 123.6v-20.5L0 113.4l18 10.2z"/><path class="st15" d="M18 123.6v20.7l17.8-10.5L18 123.6z"/><path class="st77" d="M18 144.3v-20.7L0 134.1l18 10.2z"/><path class="st0" d="M18 144.3v20.5l17.8-10.2L18 144.3z"/><path class="st78" d="M18 164.8v-20.5L0 154.6l18 10.2z"/><path class="st79" d="M125.2 20.5v20.7l18-10.2-18-10.5z"/><path class="st80" d="M125.2 41.2V20.5L107.4 31l17.8 10.2z"/><path class="st81" d="M125.2 41.2v20.5l18-10.2-18-10.3z"/><path class="st82" d="M125.2 61.7V41.2l-17.8 10.2 17.8 10.3z"/><path class="st80" d="M125.2 61.7v20.7l18-10.5-18-10.2z"/><path class="st42" d="M125.2 82.4V61.7l-17.8 10.5 17.8 10.2z"/><path class="st83" d="M125.2 82.4v20.5l18-10.2-18-10.3z"/><path class="st84" d="M125.2 102.9V82.4l-17.8 10.2 17.8 10.3z"/><path class="st85" d="M125.2 102.9v20.7l18-10.5-18-10.2z"/><path class="st68" d="M125.2 123.6v-20.7l-17.8 10.5 17.8 10.2z"/><path class="st86" d="M125.2 123.6v20.5l18-10.2-18-10.3z"/><path class="st87" d="M125.2 144.1v-20.5l-17.8 10.2 17.8 10.3z"/><path class="st27" d="M125.2 144.1v20.7l18-10.5-18-10.2z"/><path class="st88" d="M125.2 164.8v-20.7l-17.8 10.5 17.8 10.2z"/><path class="st89" d="M125.2 164.8v20.5l18-10.2-18-10.3z"/><path class="st90" d="M125.2 185.3v-20.5L107.4 175l17.8 10.3z"/><path class="st91" d="M161.1 41.2v20.5l18-10.2-18-10.3z"/><path class="st31" d="M161.1 61.7V41.2l-17.8 10.2 17.8 10.3z"/><path class="st92" d="M161.1 61.7v20.7l18-10.5-18-10.2z"/><path class="st93" d="M161.1 82.4V61.7l-17.8 10.5 17.8 10.2z"/><path class="st94" d="M161.1 82.4v20.5l18-10.2-18-10.3z"/><path class="st95" d="M161.1 102.9V82.4l-17.8 10.2 17.8 10.3z"/><path class="st94" d="M161.1 102.9v20.7l18-10.5-18-10.2z"/><path class="st96" d="M161.1 123.6v-20.7l-17.8 10.2 17.8 10.5z"/><path class="st97" d="M161.1 123.6v20.5l18-10.2-18-10.3z"/><path class="st81" d="M161.1 144.1v-20.5l-17.8 10.2 17.8 10.3z"/><path class="st98" d="M161.1 144.1v20.5l18-10.2-18-10.3z"/><path class="st99" d="M161.1 164.6v-20.5l-17.8 10.2 17.8 10.3z"/><path class="st100" d="M178.9 154.3V51.7L89.6.2 0 51.7v102.9l89.6 51.2 89.3-51.5z"/><path class="st101" d="M110.9 59.2c-9.4-9.6-18.4-18.7-21.3-28.9-2.7 10.2-11.7 19.3-21.1 28.9-14.3 14.1-30.3 30.3-30.3 54.5C40 142.2 64.5 163.8 93 162c26-1.6 46.7-22.3 48.3-48.3-.1-24.1-16.1-40.3-30.4-54.5zm-46.3 59.3c-1.5 2-2.9 4.1-4.1 6.4 0 .4-.4.6-.8.6h-.4c-1.2-.2-2.5-2.3-2.5-2.3-.4-.6-.8-1.2-1-1.8-.1-.1-.2-.3-.2-.4-2.9-7-.4-16.6-.4-16.6 1.2-4.7 3.3-9.2 6.1-13.1 1.7-2.5 3.5-4.9 5.5-7.2l2.5 2.3 11.5 11.9c.6.4.7 1.2.3 1.7l-.1.1-12.1 13.3-4.3 5.1zm25.6 33.6c-7.6 0-14.4-4.8-16.8-12.1-2-6.1-.6-12.9 3.7-17.6 3.7-4.3 8.4-8.8 13.3-14.6 5.9 6.4 9.6 10.7 13.5 15.4.3.4.6.8.8 1.2 2.1 2.9 3.3 6.4 3.3 10 0 9.7-7.9 17.6-17.6 17.6-.1.1-.1.1-.2.1zm33.6-28.3c-.3.7-.9 1.3-1.6 1.4h-.4c-.7-.2-1.3-.6-1.6-1.2-3-4.7-6.5-9.1-10.5-13.1L105 106 89.2 89.6c-2.5-2.5-7.4-7.2-9.2-9.6l-.4-.4-1.2-2.5v-.4c-.2-1.6 0-3.2.6-4.7.4-1 1-1.8 1.8-2.5 3.1-3.1 5.9-6.1 8.8-9.4l10 10.2c6.9 6.3 13 13.3 18.4 20.9 4.6 6.6 7.1 14.3 7.2 22.3.1 3.5-.4 7-1.4 10.3z"/></svg>