<svg version="1.1" id="WordPress" xmlns="http://www.w3.org/2000/svg" x="0" y="0" viewBox="0 0 701 179.6" xml:space="preserve"><style type="text/css">.st0{fill:#fff}</style><path class="st0" d="M328.3 33.6h-29.5v55.1c0 16.1-6.9 29.1-23 29.1s-23.1-13-23.1-29.1v-55h-29.4v55.1c0 31.8 20.5 57.6 52.3 57.6 31.8 0 52.6-25.8 52.6-57.6l.1-55.2zM594 .1h29.3v143.5H594zm50.9 5.3V.2h22.8v5.2h-8.4v22.7h-6.1V5.4h-8.3zM679.6.2l6.5 19.2h.1L692.4.2h8.6v27.9h-5.7V8.3h-.1l-6.8 19.8h-4.7l-6.8-19.6h-.1v19.6H671V.2h8.6zM199.5 32.4c-25.3-5.8-41.2 19.3-41.9 20.6-.3.7-.3 1-1.5 1-.9 0-1-1-1-1L152 33.9h-26.3v109.6h29.4V84.1c0-4.8 13.1-28.1 38.3-22.1 12.8 3 18.2 8.5 18.2 8.5V37.1c-4.6-2.5-7.9-3.7-12.1-4.7zm168.8 147.2v-54.2s0-1.2 1.1-1.2c1 0 1.2.6 1.4 1.2 2.2 5.6 14.5 26.7 41.7 20.1 24.4-6.9 42.3-29.3 42.3-55.9 0-32-26-58-58-58s-58 26-58 58v90h29.5zm28.5-119.4c16.2 0 29.4 13.2 29.4 29.4S413.1 119 396.8 119c-16.2 0-29.4-13.2-29.4-29.4s13.2-29.4 29.4-29.4zm155.7 83.3H582V89.6c0-32-26-58-58-58s-58 26-58 58c0 26.6 17.9 49 42.3 55.9 27.2 6.6 39.5-14.5 41.7-20.1.2-.6.4-1.2 1.4-1.2 1.1 0 1.1 1.2 1.1 1.2m.9-35.8c0 16.2-13.2 29.4-29.4 29.4s-29.4-13.2-29.4-29.4 13.2-29.4 29.4-29.4 29.4 13.2 29.4 29.4zM33.5 143.3H0V0h35.9c43.5 0 76.5 8 76.5 71.6 0 63.1-34.9 71.7-78.9 71.7zm8-118.5H29.6v93.6l12.2.3c24.9 0 41-2.3 41-47.1 0-42.9-14.2-46.8-41.3-46.8z"/></svg>