<svg version="1.1" id="Ebene_1" xmlns="http://www.w3.org/2000/svg" x="0" y="0" viewBox="0 0 303.1 84.2" xml:space="preserve"><style type="text/css">.st0{fill:#fff}</style><path class="st0" d="M121.3 28.4v55.2h-7.7V28.4H99.9v-6.7h34.9v6.7h-13.5zm41.2 26.4v28.7h-8V54.8l-15.8-33.2h8.5l11.7 25 11.7-25h8.1l-16.2 33.2zm40 5.4h-7.4v23.3h-7.7V21.7s7.6-.6 15-.6c13.4 0 17.3 8.3 17.3 19.2 0 13.4-4.6 19.9-17.2 19.9m.9-32.8c-4.9 0-8.3.5-8.3.5v25.8h8.3c5 0 8.4-3.3 8.4-12.9 0-8.8-2.1-13.4-8.4-13.4m44 56.8c-14.6 0-18.5-10.6-18.5-32.3 0-20.8 3.9-30.9 18.5-30.9s18.5 10.1 18.5 30.9c0 21.7-3.9 32.3-18.5 32.3m0-56.7c-8 0-10.6 5.4-10.6 24.9 0 19 2.7 25.4 10.6 25.4S258 71.3 258 52.3c0-19.4-2.6-24.8-10.6-24.8m40.7 56.7c-4.3 0-10.8-1.3-11.6-1.5v-6.4c2.1.4 7.6 1.3 11.5 1.3 4.5 0 7.4-3.8 7.4-10.6 0-8-1.3-12.3-7.6-12.3h-7.3v-6.5h6.4c7.2 0 7.5-7.3 7.5-10.9 0-7-2.2-9.8-6.6-9.8-3.9 0-8.3 1-10.9 1.5v-6.5c1-.2 6.2-1.5 10.7-1.5 9.1 0 14.3 3.9 14.3 17.1 0 6-2.1 11.3-6.8 13 5.4.4 7.9 6.3 7.9 14.9.1 13.2-5.1 18.2-14.9 18.2M62.9 58c-1.2.4-2.2.5-3.5.5C48.7 58.5 33 21.1 33 8.7c0-4.6 1.1-6.1 2.6-7.4C22.5 2.8 6.8 7.6 1.7 13.7.6 15.2 0 17.6 0 20.7c0 19.4 20.7 63.5 35.3 63.5 6.8 0 18.2-11.1 27.6-26.2M56 0c13.5 0 27 2.2 27 9.8C83 25.3 73.2 44 68.2 44c-8.9 0-20.1-24.9-20.1-37.3C48.2 1.1 50.4 0 56 0"/></svg>