<svg version="1.1" id="WordPress" xmlns="http://www.w3.org/2000/svg" x="0" y="0" viewBox="0 0 1163.6 237.3" xml:space="preserve"><style type="text/css">.st0{fill:#fff}</style><g id="Logotype"><path class="st0" d="M661.5 88.1h-47.2v5c14.8 0 17.1 3.2 17.1 21.9v33.7c0 18.7-2.4 22.1-17.1 22.1-11.3-1.6-19-7.6-29.5-19.2l-12.1-13.2c16.3-2.9 25-13.2 25-24.8 0-14.5-12.4-25.6-35.6-25.6h-46.4v5c14.8 0 17.1 3.2 17.1 21.9v33.7c0 18.7-2.4 22.1-17.1 22.1v5h52.5v-5c-14.8 0-17.1-3.4-17.1-22.1v-9.5h4.5l29.3 36.6h76.7c37.7 0 54-20 54-44-.1-23.9-16.4-43.6-54.1-43.6zM551 131V96h10.8c11.9 0 17.1 8.2 17.1 17.7 0 9.2-5.3 17.4-17.1 17.4H551zm111.3 36.7h-1.8c-9.5 0-10.8-2.4-10.8-14.5V96h12.7c27.4 0 32.4 20 32.4 35.6-.1 16-5.1 36.1-32.5 36.1zm-293.5-26.9L387 87c5.3-15.6 2.9-20-14-20v-5.3h49.6V67c-16.6 0-20.6 4-27.2 23.2l-30.1 90.2H362l-26.9-82.5-27.4 82.5h-3.4L275 90.2C268.7 70.9 264.4 67 249.2 67v-5.3h58.5V67c-15.6 0-19.8 3.7-14.2 20l17.7 53.8 26.6-79.1h5l26 79.1zm89.7 38.5c-29 0-52.7-21.4-52.7-47.5 0-25.8 23.7-47.2 52.7-47.2 29 0 52.7 21.4 52.7 47.2 0 26.1-23.7 47.5-52.7 47.5zm0-86.5c-24.3 0-32.7 21.9-32.7 39 0 17.4 8.4 39 32.7 39 24.5 0 33-21.6 33-39-.1-17.1-8.5-39-33-39zm322.2 77.8v5.3h-60.4v-5.3c17.7 0 20.8-4.5 20.8-30.8V97.6c0-26.4-3.2-30.6-20.8-30.6v-5.3h54.6c27.2 0 42.2 14 42.2 32.7 0 18.2-15 32.4-42.2 32.4h-15v12.9c-.1 26.4 3.1 30.9 20.8 30.9zm-5.8-99.4h-15v45.9h15c14.8 0 21.6-10.3 21.6-22.7 0-12.7-6.9-23.2-21.6-23.2zm223.3 79.9l-1.3 4.7c-2.4 8.7-5.3 11.9-24 11.9h-3.7c-13.7 0-16.1-3.2-16.1-21.9v-12.1c20.6 0 22.1 1.8 22.1 15.6h5V110h-5c0 13.7-1.6 15.6-22.1 15.6V96h14.5c18.7 0 21.6 3.2 24 11.9l1.3 5h4.2l-1.8-24.8h-77.5v5c14.8 0 17.1 3.2 17.1 21.9v33.7c0 17.1-2 21.4-13.7 22.1-11.1-1.7-18.7-7.7-29.1-19.2L880 138.4c16.3-2.9 25-13.2 25-24.8 0-14.5-12.4-25.6-35.6-25.6H823v5c14.8 0 17.1 3.2 17.1 21.9v33.7c0 18.7-2.4 22.1-17.1 22.1v5h52.5v-5c-14.8 0-17.1-3.4-17.1-22.1v-9.5h4.5l29.3 36.6h108.4l1.6-24.8h-4zM858.4 131V96h10.8c11.9 0 17.1 8.2 17.1 17.7 0 9.2-5.3 17.4-17.1 17.4h-10.8zm193.3 48.3c-10.5 0-19.8-5.5-23.7-9-1.3 1.3-3.7 5.3-4.2 9h-5v-36.4h5.3c2.1 17.4 14.2 27.7 29.8 27.7 8.4 0 15.3-4.7 15.3-12.7 0-6.9-6.1-12.1-16.9-17.1l-15-7.1c-10.5-5-18.5-13.7-18.5-25.3 0-12.7 11.9-23.5 28.2-23.5 8.7 0 16.1 3.2 20.6 6.9 1.3-1.1 2.6-4 3.4-7.1h5v31.1h-5.5c-1.8-12.4-8.7-22.7-22.7-22.7-7.4 0-14.2 4.2-14.2 10.8 0 6.9 5.5 10.5 18.2 16.3l14.5 7.1c12.7 6.1 17.7 15.8 17.7 23.7-.2 16.7-14.7 28.3-32.3 28.3zm79.7 0c-10.5 0-19.8-5.5-23.7-9-1.3 1.3-3.7 5.3-4.2 9h-5v-36.4h5.3c2.1 17.4 14.2 27.7 29.8 27.7 8.4 0 15.3-4.7 15.3-12.7 0-6.9-6.1-12.1-16.9-17.1l-15-7.1c-10.5-5-18.5-13.7-18.5-25.3 0-12.7 11.9-23.5 28.2-23.5 8.7 0 16.1 3.2 20.6 6.9 1.3-1.1 2.6-4 3.4-7.1h5v31.1h-5.5c-1.8-12.4-8.7-22.7-22.7-22.7-7.4 0-14.2 4.2-14.2 10.8 0 6.9 5.5 10.5 18.2 16.3l14.5 7.1c12.7 6.1 17.7 15.8 17.7 23.7-.1 16.7-14.6 28.3-32.3 28.3z" id="Wordmark"/><g id="W_Mark"><path class="st0" d="M118.6 7.1c15.1 0 29.7 2.9 43.4 8.8 6.6 2.8 13 6.3 18.9 10.3 5.9 4 11.5 8.6 16.5 13.6S207 50.4 211 56.3c4 6 7.5 12.3 10.3 18.9 5.8 13.7 8.8 28.3 8.8 43.4s-2.9 29.7-8.8 43.4c-2.8 6.6-6.3 13-10.3 18.9-4 5.9-8.6 11.5-13.6 16.5s-10.6 9.6-16.5 13.6c-6 4-12.3 7.5-18.9 10.3-13.7 5.8-28.3 8.8-43.4 8.8-15.1 0-29.7-2.9-43.4-8.8-6.6-2.8-13-6.3-18.9-10.3-5.9-4-11.5-8.6-16.5-13.6s-9.6-10.6-13.6-16.5c-4-6-7.5-12.3-10.3-18.9-5.8-13.7-8.8-28.3-8.8-43.4s2.9-29.7 8.8-43.4c2.8-6.6 6.3-13 10.3-18.9 4-5.9 8.6-11.5 13.6-16.5s10.6-9.6 16.5-13.6c6-4 12.3-7.5 18.9-10.3 13.8-5.8 28.4-8.8 43.4-8.8m0-7.1C53.1 0 0 53.1 0 118.6s53.1 118.6 118.6 118.6 118.6-53.1 118.6-118.6C237.3 53.1 184.2 0 118.6 0z"/><path class="st0" d="M19.8 118.6c0 39.1 22.7 73 55.7 89L28.3 78.4c-5.5 12.3-8.5 25.9-8.5 40.2zm165.6-4.9c0-12.2-4.4-20.7-8.2-27.3-5-8.1-9.7-15-9.7-23.2 0-9.1 6.9-17.5 16.6-17.5.4 0 .9.1 1.3.1-17.6-16.1-41-26-66.8-26-34.5 0-64.9 17.7-82.6 44.6 2.3.1 4.5.1 6.4.1 10.3 0 26.4-1.3 26.4-1.3 5.3-.3 6 7.5.6 8.1 0 0-5.4.6-11.3.9l36 107.1 21.6-64.9-15.4-42.2c-5.3-.2-10.4-.9-10.4-.9-5.3-.3-4.7-8.5.6-8.1 0 0 16.3 1.3 26 1.3 10.3 0 26.4-1.3 26.4-1.3 5.3-.3 6 7.5.6 8.1 0 0-5.4.6-11.3.9L168 178.6l10.2-32.3c4.5-14.2 7.2-24.2 7.2-32.6zm-65 13.6l-29.7 86.2c8.9 2.6 18.2 4 27.9 4 11.5 0 22.6-2 32.8-5.6-.3-.4-.5-.9-.7-1.4l-30.3-83.2zm85-56.1c.4 3.1.7 6.5.7 10.2 0 10-1.9 21.3-7.5 35.4l-30.2 87.3c29.4-17.1 49.2-49 49.2-85.5-.1-17.1-4.5-33.3-12.2-47.4z"/></g></g></svg>