<?xml version="1.0" encoding="utf-8"?>
<!-- Generator: Adobe Illustrator 22.1.0, SVG Export Plug-In . SVG Version: 6.00 Build 0)  -->
<svg version="1.1" xmlns="http://www.w3.org/2000/svg" xmlns:xlink="http://www.w3.org/1999/xlink" x="0px" y="0px"
	 viewBox="0 0 200 200" style="enable-background:new 0 0 200 200;" xml:space="preserve">
<style type="text/css">
	.st0{display:none;}
	.st1{display:inline;fill:none;}
	.st2{display:inline;}
	.st3{fill:none;}
</style>
<g id="Layer_1" class="st0">
	<rect class="st1" width="200" height="200"/>
	<g id="Livello_2" class="st2">
		<g id="Livello_1-2">
			<path d="M121.8,60.1c-9.7-9.4-18.9-18.6-21.6-29.1c-2.7,10.4-11.9,19.6-21.6,29.1c-14.4,14.4-30.8,30.8-30.8,55.4
				c-0.7,28.8,22.4,53,51.2,53.5c28.8,0.5,53-22.4,53.5-51.2c0-0.7,0-1.5,0-2.2C152.6,90.9,136.2,74.5,121.8,60.1z M74.5,120.3
				c-1.5,2-3,4.2-4,6.5c-0.2,0.2-0.5,0.7-1,0.7h-0.2c-1.2,0-2.5-2.2-2.5-2.2l0,0c-0.2-0.5-0.7-1.2-1-1.7l-0.2-0.5
				c-3.2-7-0.5-16.7-0.5-16.7l0,0c1.2-4.7,3.5-9.4,6.2-13.4c1.7-2.5,3.7-5,5.7-7.5l2.5,2.5l11.7,11.9c0.5,0.5,0.5,1.2,0,1.7
				L79,115.3l0,0L74.5,120.3z M100.6,154.6c-9.9,0-18.2-8.2-17.9-18.2c0-4.5,1.7-8.7,4.5-11.9c3.7-4.5,8.5-9,13.7-14.9
				c6,6.5,9.9,10.7,13.7,15.7c0.2,0.2,0.5,0.7,0.7,1.2c2,3,3.2,6.5,3.2,10.2C118.8,146.6,110.6,154.6,100.6,154.6L100.6,154.6z
				 M134.7,125.7L134.7,125.7c-0.2,0.7-1,1.2-1.7,1.5h-0.2c-0.7-0.2-1.2-0.7-1.7-1.2l0,0c-3.2-4.7-6.7-9.2-10.7-13.2l-4.7-5
				L99.6,91.4c-3.2-3-6.5-6.5-9.4-9.7c0-0.2-0.2-0.2-0.2-0.2c-0.5-0.7-1-1.5-1.2-2.5c0-0.2,0-0.2,0-0.5c-0.5-2.7,0.5-5.5,2.5-7.5
				c3-3,6.2-6.2,9.2-9.4c3.2,3.5,6.7,7,10.2,10.4l0,0c7,6.5,13.2,13.7,18.9,21.4c4.7,6.7,7.2,14.4,7.2,22.6
				C136.2,119,135.7,122.5,134.7,125.7z"/>
		</g>
	</g>
</g>
<g id="Layer_2" class="st0">
	<g id="W_Mark_2_" class="st2">
		<path d="M100,37c8.5,0,16.8,1.7,24.5,4.9c3.7,1.6,7.3,3.5,10.7,5.8c3.3,2.3,6.5,4.8,9.3,7.7c2.9,2.9,5.4,6,7.7,9.3
			c2.3,3.4,4.2,7,5.8,10.7c3.3,7.8,4.9,16,4.9,24.5s-1.7,16.8-4.9,24.5c-1.6,3.7-3.5,7.3-5.8,10.7c-2.3,3.3-4.8,6.5-7.7,9.3
			c-2.9,2.9-6,5.4-9.3,7.7c-3.4,2.3-7,4.2-10.7,5.8c-7.8,3.3-16,4.9-24.5,4.9c-8.5,0-16.8-1.7-24.5-4.9c-3.7-1.6-7.3-3.5-10.7-5.8
			c-3.3-2.3-6.5-4.8-9.3-7.7c-2.9-2.9-5.4-6-7.7-9.3c-2.3-3.4-4.2-7-5.8-10.7c-3.3-7.8-4.9-16-4.9-24.5s1.7-16.8,4.9-24.5
			c1.6-3.7,3.5-7.3,5.8-10.7c2.3-3.3,4.8-6.5,7.7-9.3c2.9-2.9,6-5.4,9.3-7.7c3.4-2.3,7-4.2,10.7-5.8C83.2,38.7,91.5,37,100,37
			 M100,33c-37,0-67,30-67,67c0,37,30,67,67,67c37,0,67-30,67-67C167,63,137,33,100,33L100,33z"/>
		<g>
			<path d="M44.2,100c0,22.1,12.8,41.2,31.5,50.2L49,77.3C45.9,84.2,44.2,91.9,44.2,100z M137.7,97.2c0-6.9-2.5-11.7-4.6-15.4
				c-2.8-4.6-5.5-8.5-5.5-13.1c0-5.1,3.9-9.9,9.4-9.9c0.2,0,0.5,0,0.7,0c-9.9-9.1-23.2-14.7-37.7-14.7c-19.5,0-36.7,10-46.7,25.2
				c1.3,0,2.5,0.1,3.6,0.1c5.8,0,14.9-0.7,14.9-0.7c3-0.2,3.4,4.2,0.4,4.6c0,0-3,0.4-6.4,0.5l20.3,60.5l12.2-36.6l-8.7-23.8
				c-3-0.2-5.9-0.5-5.9-0.5c-3-0.2-2.7-4.8,0.4-4.6c0,0,9.2,0.7,14.7,0.7c5.8,0,14.9-0.7,14.9-0.7c3-0.2,3.4,4.2,0.4,4.6
				c0,0-3,0.4-6.4,0.5l20.2,60l5.8-18.3C136.2,107.6,137.7,102,137.7,97.2z M101,104.9l-16.8,48.7c5,1.5,10.3,2.3,15.8,2.3
				c6.5,0,12.7-1.1,18.5-3.2c-0.1-0.2-0.3-0.5-0.4-0.8L101,104.9z M149,73.2c0.2,1.8,0.4,3.7,0.4,5.7c0,5.7-1.1,12-4.2,20
				l-17.1,49.3c16.6-9.7,27.8-27.7,27.8-48.3C155.8,90.3,153.4,81.2,149,73.2z"/>
		</g>
	</g>
	<rect class="st1" width="200" height="200"/>
</g>
<g id="Layer_3">
	<g>
		<path d="M135.1,126.1c-2,0.7-3.6,0.8-5.7,0.8c-17.5,0-43.3-61.3-43.3-81.6c0-7.5,1.8-10,4.3-12.1c-21.5,2.5-47.2,10.3-55.5,20.3
			C33,55.9,32,59.9,32,64.9c0,31.8,33.9,104,57.8,104C101,169,119.7,150.8,135.1,126.1"/>
		<path d="M123.8,31c22.1,0,44.2,3.6,44.2,16.1c0,25.4-16.1,56-24.3,56c-14.6,0-32.9-40.8-32.9-61.1C111,32.8,114.6,31,123.8,31"/>
	</g>
	<rect class="st3" width="200" height="200"/>
</g>
</svg>
