<?xml version="1.0" encoding="utf-8"?>
<!-- Generator: Adobe Illustrator 22.1.0, SVG Export Plug-In . SVG Version: 6.00 Build 0)  -->
<svg version="1.1" id="Layer_1" xmlns="http://www.w3.org/2000/svg" xmlns:xlink="http://www.w3.org/1999/xlink" x="0px" y="0px"
	 viewBox="0 0 200 200" style="enable-background:new 0 0 200 200;" xml:space="preserve">
<style type="text/css">
	.st0{fill:none;}
</style>
<rect class="st0" width="200" height="200"/>
<g id="Livello_2">
	<g id="Livello_1-2">
		<path d="M121.8,60.1c-9.7-9.4-18.9-18.6-21.6-29.1c-2.7,10.4-11.9,19.6-21.6,29.1c-14.4,14.4-30.8,30.8-30.8,55.4
			c-0.7,28.8,22.4,53,51.2,53.5c28.8,0.5,53-22.4,53.5-51.2c0-0.7,0-1.5,0-2.2C152.6,90.9,136.2,74.5,121.8,60.1z M74.5,120.3
			c-1.5,2-3,4.2-4,6.5c-0.2,0.2-0.5,0.7-1,0.7h-0.2c-1.2,0-2.5-2.2-2.5-2.2l0,0c-0.2-0.5-0.7-1.2-1-1.7l-0.2-0.5
			c-3.2-7-0.5-16.7-0.5-16.7l0,0c1.2-4.7,3.5-9.4,6.2-13.4c1.7-2.5,3.7-5,5.7-7.5l2.5,2.5l11.7,11.9c0.5,0.5,0.5,1.2,0,1.7L79,115.3
			l0,0L74.5,120.3z M100.6,154.6c-9.9,0-18.2-8.2-17.9-18.2c0-4.5,1.7-8.7,4.5-11.9c3.7-4.5,8.5-9,13.7-14.9
			c6,6.5,9.9,10.7,13.7,15.7c0.2,0.2,0.5,0.7,0.7,1.2c2,3,3.2,6.5,3.2,10.2C118.8,146.6,110.6,154.6,100.6,154.6L100.6,154.6z
			 M134.7,125.7L134.7,125.7c-0.2,0.7-1,1.2-1.7,1.5h-0.2c-0.7-0.2-1.2-0.7-1.7-1.2l0,0c-3.2-4.7-6.7-9.2-10.7-13.2l-4.7-5
			L99.6,91.4c-3.2-3-6.5-6.5-9.4-9.7c0-0.2-0.2-0.2-0.2-0.2c-0.5-0.7-1-1.5-1.2-2.5c0-0.2,0-0.2,0-0.5c-0.5-2.7,0.5-5.5,2.5-7.5
			c3-3,6.2-6.2,9.2-9.4c3.2,3.5,6.7,7,10.2,10.4l0,0c7,6.5,13.2,13.7,18.9,21.4c4.7,6.7,7.2,14.4,7.2,22.6
			C136.2,119,135.7,122.5,134.7,125.7z"/>
	</g>
</g>
</svg>
