<?xml version="1.0" encoding="utf-8"?>
<!-- Generator: Adobe Illustrator 22.1.0, SVG Export Plug-In . SVG Version: 6.00 Build 0)  -->
<svg version="1.1" id="Layer_1" xmlns="http://www.w3.org/2000/svg" xmlns:xlink="http://www.w3.org/1999/xlink" x="0px" y="0px"
	 viewBox="0 0 200 200" style="enable-background:new 0 0 200 200;" xml:space="preserve">
<style type="text/css">
	.st0{display:none;}
	.st1{display:inline;fill:none;}
	.st2{display:inline;}
	.st3{fill:none;}
	.st4{fill:#ADB5BD;}
</style>
<g id="Layer_1_1_" class="st0">
	<rect class="st1" width="200" height="200"/>
	<g id="Livello_2" class="st2">
		<g id="Livello_1-2">
			<path d="M121.8,60.1c-9.7-9.4-18.9-18.6-21.6-29.1c-2.7,10.4-11.9,19.6-21.6,29.1c-14.4,14.4-30.8,30.8-30.8,55.4
				c-0.7,28.8,22.4,53,51.2,53.5s53-22.4,53.5-51.2c0-0.7,0-1.5,0-2.2C152.6,90.9,136.2,74.5,121.8,60.1z M74.5,120.3
				c-1.5,2-3,4.2-4,6.5c-0.2,0.2-0.5,0.7-1,0.7h-0.2c-1.2,0-2.5-2.2-2.5-2.2l0,0c-0.2-0.5-0.7-1.2-1-1.7l-0.2-0.5
				c-3.2-7-0.5-16.7-0.5-16.7l0,0c1.2-4.7,3.5-9.4,6.2-13.4c1.7-2.5,3.7-5,5.7-7.5l2.5,2.5l11.7,11.9c0.5,0.5,0.5,1.2,0,1.7
				L79,115.3l0,0L74.5,120.3z M100.6,154.6c-9.9,0-18.2-8.2-17.9-18.2c0-4.5,1.7-8.7,4.5-11.9c3.7-4.5,8.5-9,13.7-14.9
				c6,6.5,9.9,10.7,13.7,15.7c0.2,0.2,0.5,0.7,0.7,1.2c2,3,3.2,6.5,3.2,10.2C118.8,146.6,110.6,154.6,100.6,154.6L100.6,154.6z
				 M134.7,125.7L134.7,125.7c-0.2,0.7-1,1.2-1.7,1.5h-0.2c-0.7-0.2-1.2-0.7-1.7-1.2l0,0c-3.2-4.7-6.7-9.2-10.7-13.2l-4.7-5
				L99.6,91.4c-3.2-3-6.5-6.5-9.4-9.7c0-0.2-0.2-0.2-0.2-0.2c-0.5-0.7-1-1.5-1.2-2.5c0-0.2,0-0.2,0-0.5c-0.5-2.7,0.5-5.5,2.5-7.5
				c3-3,6.2-6.2,9.2-9.4c3.2,3.5,6.7,7,10.2,10.4l0,0c7,6.5,13.2,13.7,18.9,21.4c4.7,6.7,7.2,14.4,7.2,22.6
				C136.2,119,135.7,122.5,134.7,125.7z"/>
		</g>
	</g>
</g>
<g id="Layer_2_1_" class="st0">
	<g id="W_Mark_2_" class="st2">
		<path d="M100,37c8.5,0,16.8,1.7,24.5,4.9c3.7,1.6,7.3,3.5,10.7,5.8c3.3,2.3,6.5,4.8,9.3,7.7c2.9,2.9,5.4,6,7.7,9.3
			c2.3,3.4,4.2,7,5.8,10.7c3.3,7.8,4.9,16,4.9,24.5s-1.7,16.8-4.9,24.5c-1.6,3.7-3.5,7.3-5.8,10.7c-2.3,3.3-4.8,6.5-7.7,9.3
			c-2.9,2.9-6,5.4-9.3,7.7c-3.4,2.3-7,4.2-10.7,5.8c-7.8,3.3-16,4.9-24.5,4.9s-16.8-1.7-24.5-4.9c-3.7-1.6-7.3-3.5-10.7-5.8
			c-3.3-2.3-6.5-4.8-9.3-7.7c-2.9-2.9-5.4-6-7.7-9.3c-2.3-3.4-4.2-7-5.8-10.7c-3.3-7.8-4.9-16-4.9-24.5s1.7-16.8,4.9-24.5
			c1.6-3.7,3.5-7.3,5.8-10.7c2.3-3.3,4.8-6.5,7.7-9.3c2.9-2.9,6-5.4,9.3-7.7c3.4-2.3,7-4.2,10.7-5.8C83.2,38.7,91.5,37,100,37
			 M100,33c-37,0-67,30-67,67s30,67,67,67s67-30,67-67S137,33,100,33L100,33z"/>
		<g>
			<path d="M44.2,100c0,22.1,12.8,41.2,31.5,50.2L49,77.3C45.9,84.2,44.2,91.9,44.2,100z M137.7,97.2c0-6.9-2.5-11.7-4.6-15.4
				c-2.8-4.6-5.5-8.5-5.5-13.1c0-5.1,3.9-9.9,9.4-9.9c0.2,0,0.5,0,0.7,0c-9.9-9.1-23.2-14.7-37.7-14.7c-19.5,0-36.7,10-46.7,25.2
				c1.3,0,2.5,0.1,3.6,0.1c5.8,0,14.9-0.7,14.9-0.7c3-0.2,3.4,4.2,0.4,4.6c0,0-3,0.4-6.4,0.5l20.3,60.5l12.2-36.6l-8.7-23.8
				c-3-0.2-5.9-0.5-5.9-0.5c-3-0.2-2.7-4.8,0.4-4.6c0,0,9.2,0.7,14.7,0.7c5.8,0,14.9-0.7,14.9-0.7c3-0.2,3.4,4.2,0.4,4.6
				c0,0-3,0.4-6.4,0.5l20.2,60l5.8-18.3C136.2,107.6,137.7,102,137.7,97.2z M101,104.9l-16.8,48.7c5,1.5,10.3,2.3,15.8,2.3
				c6.5,0,12.7-1.1,18.5-3.2c-0.1-0.2-0.3-0.5-0.4-0.8L101,104.9z M149,73.2c0.2,1.8,0.4,3.7,0.4,5.7c0,5.7-1.1,12-4.2,20
				l-17.1,49.3c16.6-9.7,27.8-27.7,27.8-48.3C155.8,90.3,153.4,81.2,149,73.2z"/>
		</g>
	</g>
	<rect class="st1" width="200" height="200"/>
</g>
<g id="Layer_3" class="st0">
	<g class="st2">
		<path d="M135.1,126.1c-2,0.7-3.6,0.8-5.7,0.8c-17.5,0-43.3-61.3-43.3-81.6c0-7.5,1.8-10,4.3-12.1c-21.5,2.5-47.2,10.3-55.5,20.3
			C33,55.9,32,59.9,32,64.9c0,31.8,33.9,104,57.8,104C101,169,119.7,150.8,135.1,126.1"/>
		<path d="M123.8,31c22.1,0,44.2,3.6,44.2,16.1c0,25.4-16.1,56-24.3,56c-14.6,0-32.9-40.8-32.9-61.1C111,32.8,114.6,31,123.8,31"/>
	</g>
	<rect class="st1" width="200" height="200"/>
</g>
<g id="Layer_4" class="st0">
	<rect class="st1" width="200" height="200"/>
	<g class="st2">
		<path d="M32.7,76.7h23.7c7,0.1,12,2.1,15.1,6s4.2,9.4,3.1,16.2c-0.4,3.1-1.3,6.2-2.7,9.2c-1.4,3-3.2,5.7-5.7,8.1
			c-3,3.1-6.1,5-9.5,5.8s-6.8,1.2-10.4,1.2H35.7L32.3,140H20L32.7,76.7L32.7,76.7 M43,86.8l-5.3,26.6c0.4,0.1,0.7,0.1,1.1,0.1
			c0.4,0,0.8,0,1.2,0c5.7,0.1,10.4-0.5,14.2-1.7s6.3-5.5,7.6-12.9c1.1-6.2,0-9.8-3.2-10.7c-3.1-0.9-7.1-1.4-11.8-1.3
			c-0.7,0.1-1.4,0.1-2,0.1C44.2,86.9,43.6,86.9,43,86.8L43,86.8"/>
		<path d="M88.6,59.8h12.2l-3.5,16.9h11c6,0.1,10.5,1.4,13.5,3.7c3,2.4,3.9,6.8,2.7,13.5l-5.9,29.5h-12.4l5.7-28.2
			c0.6-3,0.4-5-0.5-6.3c-0.9-1.2-3-1.9-6.1-1.9l-9.9,0l-7.3,36.4H75.9L88.6,59.8L88.6,59.8"/>
		<path d="M137.6,76.7h23.7c7,0.1,12,2.1,15.1,6s4.2,9.4,3.1,16.2c-0.4,3.1-1.3,6.2-2.7,9.2s-3.2,5.7-5.7,8.1c-3,3.1-6.1,5-9.5,5.8
			s-6.8,1.2-10.4,1.2h-10.6l-3.4,16.8H125L137.6,76.7L137.6,76.7 M148,86.8l-5.3,26.6c0.4,0.1,0.7,0.1,1.1,0.1c0.4,0,0.8,0,1.2,0
			c5.7,0.1,10.4-0.5,14.2-1.7s6.3-5.5,7.6-12.9c1.1-6.2,0-9.8-3.2-10.7c-3.1-0.9-7.1-1.4-11.8-1.3c-0.7,0.1-1.4,0.1-2,0.1
			C149.2,86.9,148.5,86.9,148,86.8L148,86.8"/>
	</g>
</g>
<g id="Layer_5" class="st0">
	<rect class="st1" width="200" height="200"/>
	<path class="st2" d="M157,67.1v65.8l-16.3,9.4V76.5L99.9,53L59.2,76.5l0.1,65.8L43,132.9V67.1l57.1-32.9L157,67.1z M108.1,142.3
		L100,147l-8.2-4.7V76.5l-16.3,9.4v65.8l24.4,14.1l24.5-14.1V85.9l-16.3-9.4L108.1,142.3L108.1,142.3z"/>
</g>
<g id="Layer_6">
	<rect class="st3" width="200" height="200"/>
	<g>
		<g>
			<path class="st4" d="M99.2,142.9c-0.5,0-0.9-0.1-1.3-0.4l-4.2-2.5c-0.6-0.4-0.3-0.5-0.1-0.6c0.8-0.3,1-0.4,1.9-0.9
				c0.1-0.1,0.2,0,0.3,0l3.2,1.9c0.1,0.1,0.3,0.1,0.4,0l12.6-7.3c0.1-0.1,0.2-0.2,0.2-0.3v-14.6c0-0.1-0.1-0.3-0.2-0.3l-12.6-7.3
				c-0.1-0.1-0.3-0.1-0.4,0L86.4,118c-0.1,0.1-0.2,0.2-0.2,0.3v14.6c0,0.1,0.1,0.3,0.2,0.3l3.5,2c1.9,0.9,3-0.2,3-1.3v-14.4
				c0-0.2,0.2-0.4,0.4-0.4h1.6c0.2,0,0.4,0.2,0.4,0.4V134c0,2.5-1.4,3.9-3.7,3.9c-0.7,0-1.3,0-2.9-0.8l-3.3-1.9
				c-0.8-0.5-1.3-1.4-1.3-2.3v-14.6c0-0.9,0.5-1.8,1.3-2.3l12.6-7.3c0.8-0.5,1.9-0.5,2.7,0l12.6,7.3c0.8,0.5,1.3,1.4,1.3,2.3v14.6
				c0,0.9-0.5,1.8-1.3,2.3l-12.6,7.3C100.1,142.8,99.7,142.9,99.2,142.9z"/>
			<path class="st4" d="M103.1,132.8c-5.5,0-6.7-2.5-6.7-4.7c0-0.2,0.2-0.4,0.4-0.4h1.6c0.2,0,0.3,0.1,0.4,0.3
				c0.2,1.7,1,2.5,4.3,2.5c2.7,0,3.8-0.6,3.8-2c0-0.8-0.3-1.4-4.5-1.8c-3.5-0.3-5.6-1.1-5.6-3.9c0-2.6,2.2-4.1,5.8-4.1
				c4.1,0,6.1,1.4,6.3,4.4c0,0.1,0,0.2-0.1,0.3c-0.1,0.1-0.2,0.1-0.3,0.1h-1.6c-0.2,0-0.3-0.1-0.4-0.3c-0.4-1.8-1.4-2.3-3.9-2.3
				c-2.9,0-3.2,1-3.2,1.8c0,0.9,0.4,1.2,4.3,1.7s5.7,1.2,5.7,4C109.4,131.2,107.1,132.8,103.1,132.8z"/>
		</g>
		<g>
			<path class="st4" d="M121.3,117.5c0,1.3-1.1,2.4-2.4,2.4s-2.4-1.1-2.4-2.4c0-1.4,1.1-2.4,2.4-2.4
				C120.2,115.1,121.3,116.1,121.3,117.5z M116.9,117.5c0,1.1,0.9,2.1,2,2.1s2.1-0.9,2.1-2.1c0-1.1-0.9-2-2.1-2
				C117.8,115.5,116.9,116.4,116.9,117.5z M118,116.2h0.9c0.3,0,1,0,1,0.7c0,0.5-0.3,0.6-0.5,0.7c0.4,0,0.4,0.3,0.5,0.6
				c0,0.2,0.1,0.6,0.1,0.7h-0.6c0-0.1-0.1-0.8-0.1-0.9c0-0.2-0.1-0.2-0.3-0.2h-0.5v1.1H118V116.2z M118.5,117.3h0.4
				c0.3,0,0.4-0.2,0.4-0.4c0-0.4-0.3-0.4-0.4-0.4h-0.4V117.3z"/>
		</g>
		<path class="st4" d="M60,85.8c0-0.6-0.3-1.1-0.8-1.4l-13.4-7.7c-0.2-0.1-0.5-0.2-0.7-0.2H45c-0.3,0-0.5,0.1-0.7,0.2l-13.4,7.7
			c-0.5,0.3-0.8,0.8-0.8,1.4v20.8c0,0.3,0.2,0.6,0.4,0.7c0.2,0.1,0.6,0.1,0.8,0l8-4.6c0.5-0.3,0.8-0.8,0.8-1.4v-9.7
			c0-0.6,0.3-1.1,0.8-1.4l3.4-2c0.3-0.1,0.5-0.2,0.8-0.2s0.6,0.1,0.8,0.2l3.4,2c0.5,0.3,0.8,0.8,0.8,1.4v9.7c0,0.6,0.3,1.1,0.8,1.4
			l8,4.6c0.2,0.1,0.6,0.1,0.8,0s0.4-0.4,0.4-0.7L60,85.8z"/>
		<path class="st4" d="M124.5,57.2c-0.3-0.1-0.6-0.1-0.8,0c-0.2,0.1-0.4,0.4-0.4,0.7v20.6c0,0.2-0.1,0.4-0.3,0.5
			c-0.2,0.1-0.4,0.1-0.6,0l-3.4-1.9c-0.5-0.3-1.1-0.3-1.6,0L104,84.8c-0.5,0.3-0.8,0.8-0.8,1.4v15.5c0,0.6,0.3,1.1,0.8,1.4l13.4,7.7
			c0.5,0.3,1.1,0.3,1.6,0l13.4-7.7c0.5-0.3,0.8-0.8,0.8-1.4V63.1c0-0.6-0.3-1.1-0.8-1.4L124.5,57.2z M123.3,96.6
			c0,0.1-0.1,0.3-0.2,0.4l-4.6,2.7c-0.1,0.1-0.3,0.1-0.4,0l-4.6-2.7c-0.1-0.1-0.2-0.2-0.2-0.4v-5.3c0-0.1,0.1-0.3,0.2-0.4l4.6-2.7
			c0.1-0.1,0.3-0.1,0.4,0l4.6,2.7c0.1,0.1,0.2,0.2,0.2,0.4V96.6z"/>
		<g>
			<path class="st4" d="M169.2,91.1c0.5-0.3,0.8-0.8,0.8-1.4V86c0-0.6-0.3-1.1-0.8-1.4l-13.3-7.7c-0.5-0.3-1.1-0.3-1.6,0l-13.4,7.7
				c-0.5,0.3-0.8,0.8-0.8,1.4v15.5c0,0.6,0.3,1.1,0.8,1.4l13.3,7.6c0.5,0.3,1.1,0.3,1.6,0l8.1-4.5c0.3-0.1,0.4-0.4,0.4-0.7
				c0-0.3-0.2-0.6-0.4-0.7l-13.5-7.7c-0.3-0.1-0.4-0.4-0.4-0.7v-4.9c0-0.3,0.2-0.6,0.4-0.7l4.2-2.4c0.2-0.1,0.6-0.1,0.8,0l4.2,2.4
				c0.3,0.1,0.4,0.4,0.4,0.7v3.8c0,0.3,0.2,0.6,0.4,0.7c0.3,0.1,0.6,0.1,0.8,0L169.2,91.1z"/>
			<path class="st4" d="M154.9,90.4c0.1-0.1,0.2-0.1,0.3,0l2.6,1.5c0.1,0.1,0.2,0.2,0.2,0.3v3c0,0.1-0.1,0.2-0.2,0.3l-2.6,1.5
				c-0.1,0.1-0.2,0.1-0.3,0l-2.6-1.5c-0.1-0.1-0.2-0.2-0.2-0.3v-3c0-0.1,0.1-0.2,0.2-0.3L154.9,90.4z"/>
		</g>
		<path class="st4" d="M96.2,84.9L96.2,84.9C96.2,84.9,96.2,84.9,96.2,84.9c-0.1-0.2-0.3-0.3-0.4-0.3l-13.3-7.7
			c-0.1-0.1-0.2-0.1-0.4-0.2v0l0,0l0,0c-0.3-0.1-0.6-0.1-0.9,0c-0.1,0-0.3,0.1-0.4,0.1l-13.3,7.7c-0.5,0.3-0.8,0.8-0.8,1.4v15.4
			c0,0.1,0,0.3,0.1,0.4c0,0,0,0,0,0.1c0,0.1,0,0.1,0.1,0.2c0.1,0.3,0.4,0.6,0.7,0.8l13.3,7.7c0.4,0.2,0.8,0.3,1.2,0.2l0,0
			c0.2,0,0.3-0.1,0.5-0.2l13.3-7.7c0.5-0.3,0.8-0.8,0.8-1.4V86C96.6,85.6,96.4,85.2,96.2,84.9z"/>
	</g>
</g>
</svg>
