<?xml version="1.0" encoding="utf-8"?>
<!-- Generator: Adobe Illustrator 21.0.0, SVG Export Plug-In . SVG Version: 6.00 Build 0)  -->
<svg version="1.1" id="Layer_1" xmlns="http://www.w3.org/2000/svg" xmlns:xlink="http://www.w3.org/1999/xlink" x="0px" y="0px"
	 viewBox="0 0 800 225" style="enable-background:new 0 0 800 225;" xml:space="preserve">
<style type="text/css">
	.st0{clip-path:url(#SVGID_2_);fill:#FFFFFF;}
</style>
<g>
	<defs>
		<rect id="SVGID_1_" width="800" height="225"/>
	</defs>
	<clipPath id="SVGID_2_">
		<use xlink:href="#SVGID_1_"  style="overflow:visible;"/>
	</clipPath>
	<path class="st0" d="M58.9,45.8h7v33.3l-0.3,15.1c7.8-6.6,17.1-12,26.6-12c20.5,0,30.8,15.4,30.8,39.2c0,26.1-15.9,41.5-34,41.5
		c-7.4,0-15.9-3.5-23.1-9.1h-0.3l-0.8,7.2h-5.9V45.8z M88.7,156.6c15.5,0,26.8-14.4,26.8-35.2c0-18.9-6.7-33-24.3-33
		c-7.7,0-16,4.5-25.2,12.7v45.7C74.5,153.9,82.8,156.6,88.7,156.6"/>
	<path class="st0" d="M178.1,112.8c0.3-11.7-3-24.3-18.1-24.3c-10.4,0-19.4,5.1-24.5,9l-3.2-5.3c5.4-3.8,16-9.9,28.5-9.9
		c18.3,0,24.3,13.1,24.3,29.6V161h-5.9l-0.8-9.9h-0.3c-7.8,6.2-17.1,11.9-27.2,11.9c-12.2,0-22.4-6.6-22.4-21.1
		C128.5,124.8,144,116.6,178.1,112.8 M152,156.8c8.8,0,16.7-4.3,26.1-12.5v-26.1c-31.6,3.7-42.3,11.1-42.3,23.2
		C135.8,152.5,143.2,156.8,152,156.8"/>
	<path class="st0" d="M228.9,82.2c10.6,0,17.5,4.6,22.6,9.5l-4.2,5c-5-4.6-10.7-8.2-18.3-8.2c-15.7,0-27.9,13.9-27.9,34.3
		c0,20.2,11.1,34,27.9,34c8.2,0,15.2-4,20.5-8.8l3.7,4.8c-6.6,5.9-14.7,10.3-24.5,10.3c-19.9,0-34.9-14.7-34.9-40.2
		C193.8,96.9,210.2,82.2,228.9,82.2"/>
	<polygon class="st0" points="262.9,45.8 269.9,45.8 269.9,130.7 270.2,130.7 308.2,84.1 316.4,84.1 291.4,114.5 320.5,161 
		312.7,161 287.2,119.8 269.9,140 269.9,161 262.9,161 	"/>
	<path class="st0" d="M350.6,82.2c9.3,0,15.5,3.5,23.2,9.5l-0.3-14.1V45.8h7V161h-6.1l-0.6-9.9h-0.5c-6.2,6.2-14.7,11.9-25,11.9
		c-19.4,0-31.9-14.3-31.9-40.2C316.5,97.9,332.3,82.2,350.6,82.2 M349.3,156.6c8.5,0,16-4.5,24.2-12.7V98.3
		c-8.2-7.2-14.9-9.9-22.4-9.9c-15.4,0-27.1,14.9-27.1,34.3C324,143,333,156.6,349.3,156.6"/>
	<path class="st0" d="M391.1,84.1h6.1l0.6,14.3h0.5c5.1-9.5,12.7-16.2,21.8-16.2c2.9,0,5.1,0.3,7.7,1.6l-1.6,6.4c-2.6-1-4-1.3-7-1.3
		c-6.9,0-15.1,5.3-21,19.7V161h-7V84.1z"/>
	<path class="st0" d="M460,82.2c18.6,0,34.6,14.7,34.6,40.5c0,25.5-16,40.2-34.6,40.2c-18.4,0-34.4-14.7-34.4-40.2
		C425.6,96.9,441.6,82.2,460,82.2 M460,156.6c15.5,0,27.2-13.8,27.2-34c0-20.3-11.7-34.3-27.2-34.3s-27.1,13.9-27.1,34.3
		C432.9,142.9,444.5,156.6,460,156.6"/>
	<path class="st0" d="M511.3,167.7v28h-7V84.1h6.1l0.6,9.6h0.5c7.5-5.9,16.7-11.5,26.1-11.5c20.5,0,30.8,15.4,30.8,39.2
		c0,26.1-15.9,41.5-34,41.5c-7.2,0-15.1-3.5-23.1-9.5V167.7z M534,156.6c15.5,0,26.8-14.4,26.8-35.2c0-18.9-6.7-33-24.3-33
		c-7.7,0-15.9,4.5-25.2,12.7v45.7C520.1,153.9,528.1,156.6,534,156.6"/>
	<polygon class="st0" points="741,165 741,103.6 679.7,165 	"/>
	<polygon class="st0" points="618,42 618,165 680,165 680,104 741,104 741,42 	"/>
</g>
</svg>
