<?xml version="1.0" encoding="utf-8"?>
<!-- Generator: Adobe Illustrator 21.0.0, SVG Export Plug-In . SVG Version: 6.00 Build 0)  -->
<svg version="1.1" id="Layer_1" xmlns="http://www.w3.org/2000/svg" xmlns:xlink="http://www.w3.org/1999/xlink" x="0px" y="0px"
	 viewBox="0 0 292 68.6" style="enable-background:new 0 0 292 68.6;" xml:space="preserve">
<style type="text/css">
	.st0{fill-rule:evenodd;clip-rule:evenodd;fill:#FFD600;}
	.st1{fill-rule:evenodd;clip-rule:evenodd;fill:#FFFFFF;}
</style>
<g>
	<path class="st0" d="M40.1,6.4h7.6v0h21.5L84.8,22v24.6L69.2,62.2H50.6v0h-7.6c-0.7-0.8-1.8-1.4-3-1.4c-2.1,0-3.9,1.7-3.9,3.9
		c0,2.1,1.7,3.9,3.9,3.9c1.2,0,2.2-0.5,3-1.4h4.7v0h23.1v0h0.5l18.5-18.5v-1h0V19.9h0L71.3,1.4h-0.8v0H47.7v0h-7.6
		c-0.7-0.8-1.8-1.4-3-1.4c-2.1,0-3.9,1.7-3.9,3.9c0,2.1,1.7,3.9,3.9,3.9C38.3,7.8,39.4,7.2,40.1,6.4L40.1,6.4z M37.1,2.2
		c0.9,0,1.6,0.7,1.6,1.6c0,0.9-0.7,1.6-1.6,1.6c-0.9,0-1.6-0.7-1.6-1.6C35.5,3,36.2,2.2,37.1,2.2L37.1,2.2z M40.1,63.1
		c0.9,0,1.6,0.7,1.6,1.6c0,0.9-0.7,1.6-1.6,1.6c-0.9,0-1.6-0.7-1.6-1.6C38.5,63.8,39.2,63.1,40.1,63.1z"/>
	<path class="st0" d="M67.2,11.4H30v0.1c-0.7-0.8-1.7-1.2-2.8-1.2c-2.1,0-3.9,1.7-3.9,3.9c0,2.1,1.7,3.9,3.9,3.9
		c1.3,0,2.5-0.6,3.2-1.6h34.7l9.7,9.7v16.3l-9.7,9.7H29.8c-0.7-0.8-1.8-1.4-3-1.4c-2.1,0-3.9,1.7-3.9,3.9c0,2.1,1.7,3.9,3.9,3.9
		c1.2,0,2.2-0.5,3-1.4h37.3l0,0l0,0h0v0l12.6-12.6v-1.6h0V25.6h0v-1.6L67.2,11.4L67.2,11.4L67.2,11.4z M27.2,12.6
		c0.9,0,1.6,0.7,1.6,1.6c0,0.9-0.7,1.6-1.6,1.6c-0.9,0-1.6-0.7-1.6-1.6C25.5,13.3,26.3,12.6,27.2,12.6L27.2,12.6z M26.9,53
		c0.9,0,1.6,0.7,1.6,1.6c0,0.9-0.7,1.6-1.6,1.6c-0.9,0-1.6-0.7-1.6-1.6C25.2,53.7,26,53,26.9,53z"/>
	<path class="st0" d="M61.4,47L61.4,47l-45.2,0c-0.7,0.7-1.6,1.1-2.7,1.1c-2.1,0-3.9-1.7-3.9-3.9c0-2.1,1.7-3.9,3.9-3.9
		c1.3,0,2.5,0.7,3.2,1.7h12.4l-5.2-5.2H6.8c-0.7,0.8-1.8,1.4-3,1.4c-2.1,0-3.9-1.7-3.9-3.9c0-2.1,1.7-3.9,3.9-3.9
		c1.2,0,2.2,0.5,3,1.4H26v0L36.3,42h24.6l3.7-3.7v-7.9l-3.7-3.7H38l5.2,5.2h10.1c0.7-0.8,1.8-1.4,3-1.4c2.1,0,3.9,1.7,3.9,3.9
		c0,2.1-1.7,3.9-3.9,3.9c-1.2,0-2.2-0.5-3-1.4H41.1L30.9,26.6H17.4c-0.7,0.8-1.8,1.4-3,1.4c-2.1,0-3.9-1.7-3.9-3.9
		c0-2.1,1.7-3.9,3.9-3.9c1.2,0,2.2,0.5,3,1.4h45.5v0H63l6.7,6.7v0v5v2.2v3.3v1.6L63,47H61.4L61.4,47z M56.3,32.6
		c-0.9,0-1.6,0.7-1.6,1.6c0,0.9,0.7,1.6,1.6,1.6c0.9,0,1.6-0.7,1.6-1.6C58,33.4,57.2,32.6,56.3,32.6L56.3,32.6z M14.5,22.4
		c-0.9,0-1.6,0.7-1.6,1.6c0,0.9,0.7,1.6,1.6,1.6c0.9,0,1.6-0.7,1.6-1.6C16.1,23.2,15.4,22.4,14.5,22.4L14.5,22.4z M13.5,42.6
		c-0.9,0-1.6,0.7-1.6,1.6c0,0.9,0.7,1.6,1.6,1.6c0.9,0,1.6-0.7,1.6-1.6C15.2,43.3,14.4,42.6,13.5,42.6L13.5,42.6z M3.9,32.6
		c-0.9,0-1.6,0.7-1.6,1.6c0,0.9,0.7,1.6,1.6,1.6c0.9,0,1.6-0.7,1.6-1.6C5.5,33.4,4.8,32.6,3.9,32.6z"/>
	<path class="st1" d="M111.2,23h22.8c3.9,0,7.1,3.2,7.1,7.1v8.4c0,3.9-3.2,7.1-7.1,7.1h-22.8V23L111.2,23z M134.1,16.9h-29v34.9h29
		c7.3,0,13.3-6,13.3-13.3v-8.4C147.3,22.8,141.4,16.9,134.1,16.9z"/>
	<polygon class="st1" points="204,31.2 204,51.7 240.1,51.7 240.1,45.5 210.2,45.5 210.2,37.4 235.1,37.4 235.1,31.2 224,31.2 
		210.2,31.2 	"/>
	<path class="st1" d="M160.9,23h22.8c3.9,0,7.1,3.2,7.1,7.1v8.4c0,3.9-3.2,7.1-7.1,7.1h-22.8V23L160.9,23z M183.7,16.9h-29v34.9h29
		c7.3,0,13.3-6,13.3-13.3v-8.4C197,22.8,191,16.9,183.7,16.9z"/>
	<polygon class="st1" points="246.7,16.9 265.8,49.9 266.8,51.7 271.8,51.7 272.9,49.9 292,16.9 284.8,16.9 269.3,43.7 253.8,16.9 	
		"/>
	<polygon class="st0" points="210.2,23 224,23 240.1,23 240.1,16.9 204,16.9 204,23 	"/>
</g>
</svg>
