<?xml version="1.0" encoding="utf-8"?>
<!-- Generator: Adobe Illustrator 22.1.0, SVG Export Plug-In . SVG Version: 6.00 Build 0)  -->
<svg version="1.1" id="Layer_1" xmlns="http://www.w3.org/2000/svg" xmlns:xlink="http://www.w3.org/1999/xlink" x="0px" y="0px"
	 viewBox="0 0 200 200" style="enable-background:new 0 0 200 200;" xml:space="preserve">
<style type="text/css">
	.st0{display:none;}
	.st1{display:inline;fill:none;}
	.st2{display:inline;}
	.st3{fill:#9A9A9A;}
	.st4{fill:#333333;}
	.st5{fill:url(#XMLID_2_);}
	.st6{clip-path:url(#SVGID_2_);}
	.st7{fill:none;}
	.st8{opacity:0.66;fill:#B4B4B4;enable-background:new    ;}
	.st9{clip-path:url(#SVGID_4_);}
	.st10{fill:url(#SVGID_5_);}
	.st11{fill:#ADB5BD;}
	.st12{fill:#5C6670;}
</style>
<g id="Layer_1_1_" class="st0">
	<rect class="st1" width="200" height="200"/>
	<g id="Livello_2" class="st2">
		<g id="Livello_1-2">
			<path d="M121.8,60.1c-9.7-9.4-18.9-18.6-21.6-29.1c-2.7,10.4-11.9,19.6-21.6,29.1c-14.4,14.4-30.8,30.8-30.8,55.4
				c-0.7,28.8,22.4,53,51.2,53.5s53-22.4,53.5-51.2c0-0.7,0-1.5,0-2.2C152.6,90.9,136.2,74.5,121.8,60.1z M74.5,120.3
				c-1.5,2-3,4.2-4,6.5c-0.2,0.2-0.5,0.7-1,0.7h-0.2c-1.2,0-2.5-2.2-2.5-2.2l0,0c-0.2-0.5-0.7-1.2-1-1.7l-0.2-0.5
				c-3.2-7-0.5-16.7-0.5-16.7l0,0c1.2-4.7,3.5-9.4,6.2-13.4c1.7-2.5,3.7-5,5.7-7.5l2.5,2.5l11.7,11.9c0.5,0.5,0.5,1.2,0,1.7
				L79,115.3l0,0L74.5,120.3z M100.6,154.6c-9.9,0-18.2-8.2-17.9-18.2c0-4.5,1.7-8.7,4.5-11.9c3.7-4.5,8.5-9,13.7-14.9
				c6,6.5,9.9,10.7,13.7,15.7c0.2,0.2,0.5,0.7,0.7,1.2c2,3,3.2,6.5,3.2,10.2C118.8,146.6,110.6,154.6,100.6,154.6L100.6,154.6z
				 M134.7,125.7L134.7,125.7c-0.2,0.7-1,1.2-1.7,1.5h-0.2c-0.7-0.2-1.2-0.7-1.7-1.2l0,0c-3.2-4.7-6.7-9.2-10.7-13.2l-4.7-5
				L99.6,91.4c-3.2-3-6.5-6.5-9.4-9.7c0-0.2-0.2-0.2-0.2-0.2c-0.5-0.7-1-1.5-1.2-2.5c0-0.2,0-0.2,0-0.5c-0.5-2.7,0.5-5.5,2.5-7.5
				c3-3,6.2-6.2,9.2-9.4c3.2,3.5,6.7,7,10.2,10.4l0,0c7,6.5,13.2,13.7,18.9,21.4c4.7,6.7,7.2,14.4,7.2,22.6
				C136.2,119,135.7,122.5,134.7,125.7z"/>
		</g>
	</g>
</g>
<g id="Layer_2_1_" class="st0">
	<g id="W_Mark_2_" class="st2">
		<path d="M100,37c8.5,0,16.8,1.7,24.5,4.9c3.7,1.6,7.3,3.5,10.7,5.8c3.3,2.3,6.5,4.8,9.3,7.7c2.9,2.9,5.4,6,7.7,9.3
			c2.3,3.4,4.2,7,5.8,10.7c3.3,7.8,4.9,16,4.9,24.5s-1.7,16.8-4.9,24.5c-1.6,3.7-3.5,7.3-5.8,10.7c-2.3,3.3-4.8,6.5-7.7,9.3
			c-2.9,2.9-6,5.4-9.3,7.7c-3.4,2.3-7,4.2-10.7,5.8c-7.8,3.3-16,4.9-24.5,4.9s-16.8-1.7-24.5-4.9c-3.7-1.6-7.3-3.5-10.7-5.8
			c-3.3-2.3-6.5-4.8-9.3-7.7c-2.9-2.9-5.4-6-7.7-9.3c-2.3-3.4-4.2-7-5.8-10.7c-3.3-7.8-4.9-16-4.9-24.5s1.7-16.8,4.9-24.5
			c1.6-3.7,3.5-7.3,5.8-10.7c2.3-3.3,4.8-6.5,7.7-9.3c2.9-2.9,6-5.4,9.3-7.7c3.4-2.3,7-4.2,10.7-5.8C83.2,38.7,91.5,37,100,37
			 M100,33c-37,0-67,30-67,67s30,67,67,67s67-30,67-67S137,33,100,33L100,33z"/>
		<g>
			<path d="M44.2,100c0,22.1,12.8,41.2,31.5,50.2L49,77.3C45.9,84.2,44.2,91.9,44.2,100z M137.7,97.2c0-6.9-2.5-11.7-4.6-15.4
				c-2.8-4.6-5.5-8.5-5.5-13.1c0-5.1,3.9-9.9,9.4-9.9c0.2,0,0.5,0,0.7,0c-9.9-9.1-23.2-14.7-37.7-14.7c-19.5,0-36.7,10-46.7,25.2
				c1.3,0,2.5,0.1,3.6,0.1c5.8,0,14.9-0.7,14.9-0.7c3-0.2,3.4,4.2,0.4,4.6c0,0-3,0.4-6.4,0.5l20.3,60.5l12.2-36.6l-8.7-23.8
				c-3-0.2-5.9-0.5-5.9-0.5c-3-0.2-2.7-4.8,0.4-4.6c0,0,9.2,0.7,14.7,0.7c5.8,0,14.9-0.7,14.9-0.7c3-0.2,3.4,4.2,0.4,4.6
				c0,0-3,0.4-6.4,0.5l20.2,60l5.8-18.3C136.2,107.6,137.7,102,137.7,97.2z M101,104.9l-16.8,48.7c5,1.5,10.3,2.3,15.8,2.3
				c6.5,0,12.7-1.1,18.5-3.2c-0.1-0.2-0.3-0.5-0.4-0.8L101,104.9z M149,73.2c0.2,1.8,0.4,3.7,0.4,5.7c0,5.7-1.1,12-4.2,20
				l-17.1,49.3c16.6-9.7,27.8-27.7,27.8-48.3C155.8,90.3,153.4,81.2,149,73.2z"/>
		</g>
	</g>
	<rect class="st1" width="200" height="200"/>
</g>
<g id="Layer_3" class="st0">
	<g class="st2">
		<path d="M135.1,126.1c-2,0.7-3.6,0.8-5.7,0.8c-17.5,0-43.3-61.3-43.3-81.6c0-7.5,1.8-10,4.3-12.1c-21.5,2.5-47.2,10.3-55.5,20.3
			C33,55.9,32,59.9,32,64.9c0,31.8,33.9,104,57.8,104C101,169,119.7,150.8,135.1,126.1"/>
		<path d="M123.8,31c22.1,0,44.2,3.6,44.2,16.1c0,25.4-16.1,56-24.3,56c-14.6,0-32.9-40.8-32.9-61.1C111,32.8,114.6,31,123.8,31"/>
	</g>
	<rect class="st1" width="200" height="200"/>
</g>
<g id="Layer_4" class="st0">
	<rect class="st1" width="200" height="200"/>
	<g class="st2">
		<path d="M32.7,76.7h23.7c7,0.1,12,2.1,15.1,6s4.2,9.4,3.1,16.2c-0.4,3.1-1.3,6.2-2.7,9.2c-1.4,3-3.2,5.7-5.7,8.1
			c-3,3.1-6.1,5-9.5,5.8s-6.8,1.2-10.4,1.2H35.7L32.3,140H20L32.7,76.7L32.7,76.7 M43,86.8l-5.3,26.6c0.4,0.1,0.7,0.1,1.1,0.1
			c0.4,0,0.8,0,1.2,0c5.7,0.1,10.4-0.5,14.2-1.7s6.3-5.5,7.6-12.9c1.1-6.2,0-9.8-3.2-10.7c-3.1-0.9-7.1-1.4-11.8-1.3
			c-0.7,0.1-1.4,0.1-2,0.1C44.2,86.9,43.6,86.9,43,86.8L43,86.8"/>
		<path d="M88.6,59.8h12.2l-3.5,16.9h11c6,0.1,10.5,1.4,13.5,3.7c3,2.4,3.9,6.8,2.7,13.5l-5.9,29.5h-12.4l5.7-28.2
			c0.6-3,0.4-5-0.5-6.3c-0.9-1.2-3-1.9-6.1-1.9l-9.9,0l-7.3,36.4H75.9L88.6,59.8L88.6,59.8"/>
		<path d="M137.6,76.7h23.7c7,0.1,12,2.1,15.1,6s4.2,9.4,3.1,16.2c-0.4,3.1-1.3,6.2-2.7,9.2s-3.2,5.7-5.7,8.1c-3,3.1-6.1,5-9.5,5.8
			s-6.8,1.2-10.4,1.2h-10.6l-3.4,16.8H125L137.6,76.7L137.6,76.7 M148,86.8l-5.3,26.6c0.4,0.1,0.7,0.1,1.1,0.1c0.4,0,0.8,0,1.2,0
			c5.7,0.1,10.4-0.5,14.2-1.7s6.3-5.5,7.6-12.9c1.1-6.2,0-9.8-3.2-10.7c-3.1-0.9-7.1-1.4-11.8-1.3c-0.7,0.1-1.4,0.1-2,0.1
			C149.2,86.9,148.5,86.9,148,86.8L148,86.8"/>
	</g>
</g>
<g id="Layer_5" class="st0">
	<rect class="st1" width="200" height="200"/>
	<path class="st2" d="M157,67.1v65.8l-16.3,9.4V76.5L99.9,53L59.2,76.5l0.1,65.8L43,132.9V67.1l57.1-32.9L157,67.1z M108.1,142.3
		L100,147l-8.2-4.7V76.5l-16.3,9.4v65.8l24.4,14.1l24.5-14.1V85.9l-16.3-9.4L108.1,142.3L108.1,142.3z"/>
</g>
<g id="Layer_6" class="st0">
	<rect class="st1" width="200" height="200"/>
	<g class="st2">
		<g>
			<path class="st3" d="M99.2,142.9c-0.5,0-0.9-0.1-1.3-0.4l-4.2-2.5c-0.6-0.4-0.3-0.5-0.1-0.6c0.8-0.3,1-0.4,1.9-0.9
				c0.1-0.1,0.2,0,0.3,0l3.2,1.9c0.1,0.1,0.3,0.1,0.4,0l12.6-7.3c0.1-0.1,0.2-0.2,0.2-0.3v-14.6c0-0.1-0.1-0.3-0.2-0.3l-12.6-7.3
				c-0.1-0.1-0.3-0.1-0.4,0L86.4,118c-0.1,0.1-0.2,0.2-0.2,0.3v14.6c0,0.1,0.1,0.3,0.2,0.3l3.5,2c1.9,0.9,3-0.2,3-1.3v-14.4
				c0-0.2,0.2-0.4,0.4-0.4h1.6c0.2,0,0.4,0.2,0.4,0.4V134c0,2.5-1.4,3.9-3.7,3.9c-0.7,0-1.3,0-2.9-0.8l-3.3-1.9
				c-0.8-0.5-1.3-1.4-1.3-2.3v-14.6c0-0.9,0.5-1.8,1.3-2.3l12.6-7.3c0.8-0.5,1.9-0.5,2.7,0l12.6,7.3c0.8,0.5,1.3,1.4,1.3,2.3v14.6
				c0,0.9-0.5,1.8-1.3,2.3l-12.6,7.3C100.1,142.8,99.7,142.9,99.2,142.9z"/>
			<path class="st3" d="M103.1,132.8c-5.5,0-6.7-2.5-6.7-4.7c0-0.2,0.2-0.4,0.4-0.4h1.6c0.2,0,0.3,0.1,0.4,0.3
				c0.2,1.7,1,2.5,4.3,2.5c2.7,0,3.8-0.6,3.8-2c0-0.8-0.3-1.4-4.5-1.8c-3.5-0.3-5.6-1.1-5.6-3.9c0-2.6,2.2-4.1,5.8-4.1
				c4.1,0,6.1,1.4,6.3,4.4c0,0.1,0,0.2-0.1,0.3c-0.1,0.1-0.2,0.1-0.3,0.1h-1.6c-0.2,0-0.3-0.1-0.4-0.3c-0.4-1.8-1.4-2.3-3.9-2.3
				c-2.9,0-3.2,1-3.2,1.8c0,0.9,0.4,1.2,4.3,1.7s5.7,1.2,5.7,4C109.4,131.2,107.1,132.8,103.1,132.8z"/>
		</g>
		<g>
			<path class="st3" d="M121.3,117.5c0,1.3-1.1,2.4-2.4,2.4s-2.4-1.1-2.4-2.4c0-1.4,1.1-2.4,2.4-2.4
				C120.2,115.1,121.3,116.1,121.3,117.5z M116.9,117.5c0,1.1,0.9,2.1,2,2.1s2.1-0.9,2.1-2.1c0-1.1-0.9-2-2.1-2
				C117.8,115.5,116.9,116.4,116.9,117.5z M118,116.2h0.9c0.3,0,1,0,1,0.7c0,0.5-0.3,0.6-0.5,0.7c0.4,0,0.4,0.3,0.5,0.6
				c0,0.2,0.1,0.6,0.1,0.7h-0.6c0-0.1-0.1-0.8-0.1-0.9c0-0.2-0.1-0.2-0.3-0.2h-0.5v1.1H118V116.2z M118.5,117.3h0.4
				c0.3,0,0.4-0.2,0.4-0.4c0-0.4-0.3-0.4-0.4-0.4h-0.4V117.3z"/>
		</g>
		<path class="st4" d="M60,85.8c0-0.6-0.3-1.1-0.8-1.4l-13.4-7.7c-0.2-0.1-0.5-0.2-0.7-0.2H45c-0.3,0-0.5,0.1-0.7,0.2l-13.4,7.7
			c-0.5,0.3-0.8,0.8-0.8,1.4v20.8c0,0.3,0.2,0.6,0.4,0.7c0.2,0.1,0.6,0.1,0.8,0l8-4.6c0.5-0.3,0.8-0.8,0.8-1.4v-9.7
			c0-0.6,0.3-1.1,0.8-1.4l3.4-2c0.3-0.1,0.5-0.2,0.8-0.2s0.6,0.1,0.8,0.2l3.4,2c0.5,0.3,0.8,0.8,0.8,1.4v9.7c0,0.6,0.3,1.1,0.8,1.4
			l8,4.6c0.2,0.1,0.6,0.1,0.8,0s0.4-0.4,0.4-0.7L60,85.8z"/>
		<path class="st4" d="M124.5,57.2c-0.3-0.1-0.6-0.1-0.8,0c-0.2,0.1-0.4,0.4-0.4,0.7v20.6c0,0.2-0.1,0.4-0.3,0.5
			c-0.2,0.1-0.4,0.1-0.6,0l-3.4-1.9c-0.5-0.3-1.1-0.3-1.6,0L104,84.8c-0.5,0.3-0.8,0.8-0.8,1.4v15.5c0,0.6,0.3,1.1,0.8,1.4l13.4,7.7
			c0.5,0.3,1.1,0.3,1.6,0l13.4-7.7c0.5-0.3,0.8-0.8,0.8-1.4V63.1c0-0.6-0.3-1.1-0.8-1.4L124.5,57.2z M123.3,96.6
			c0,0.1-0.1,0.3-0.2,0.4l-4.6,2.7c-0.1,0.1-0.3,0.1-0.4,0l-4.6-2.7c-0.1-0.1-0.2-0.2-0.2-0.4v-5.3c0-0.1,0.1-0.3,0.2-0.4l4.6-2.7
			c0.1-0.1,0.3-0.1,0.4,0l4.6,2.7c0.1,0.1,0.2,0.2,0.2,0.4V96.6z"/>
		<g>
			<path class="st4" d="M169.2,91.1c0.5-0.3,0.8-0.8,0.8-1.4V86c0-0.6-0.3-1.1-0.8-1.4l-13.3-7.7c-0.5-0.3-1.1-0.3-1.6,0l-13.4,7.7
				c-0.5,0.3-0.8,0.8-0.8,1.4v15.5c0,0.6,0.3,1.1,0.8,1.4l13.3,7.6c0.5,0.3,1.1,0.3,1.6,0l8.1-4.5c0.3-0.1,0.4-0.4,0.4-0.7
				c0-0.3-0.2-0.6-0.4-0.7l-13.5-7.7c-0.3-0.1-0.4-0.4-0.4-0.7v-4.9c0-0.3,0.2-0.6,0.4-0.7l4.2-2.4c0.2-0.1,0.6-0.1,0.8,0l4.2,2.4
				c0.3,0.1,0.4,0.4,0.4,0.7v3.8c0,0.3,0.2,0.6,0.4,0.7c0.3,0.1,0.6,0.1,0.8,0L169.2,91.1z"/>
			<path class="st3" d="M154.9,90.4c0.1-0.1,0.2-0.1,0.3,0l2.6,1.5c0.1,0.1,0.2,0.2,0.2,0.3v3c0,0.1-0.1,0.2-0.2,0.3l-2.6,1.5
				c-0.1,0.1-0.2,0.1-0.3,0l-2.6-1.5c-0.1-0.1-0.2-0.2-0.2-0.3v-3c0-0.1,0.1-0.2,0.2-0.3L154.9,90.4z"/>
		</g>
		<g>
			
				<linearGradient id="XMLID_2_" gradientUnits="userSpaceOnUse" x1="66.7642" y1="106.3" x2="96.5642" y2="106.3" gradientTransform="matrix(1 0 0 -1 0 200)">
				<stop  offset="5.301339e-03" style="stop-color:#000000"/>
				<stop  offset="0.1938" style="stop-color:#171717"/>
				<stop  offset="0.5423" style="stop-color:#3D3D3D"/>
				<stop  offset="0.8235" style="stop-color:#545454"/>
				<stop  offset="1" style="stop-color:#5C5C5C"/>
			</linearGradient>
			<path id="XMLID_67_" class="st5" d="M80.9,76.9c0.5-0.3,1.1-0.3,1.6,0l13.3,7.7c0.5,0.3,0.8,0.8,0.8,1.4v15.4
				c0,0.6-0.3,1.1-0.8,1.4l-13.3,7.7c-0.5,0.3-1.1,0.3-1.6,0l-13.3-7.7c-0.5-0.3-0.8-0.8-0.8-1.4V86c0-0.6,0.3-1.1,0.8-1.4
				L80.9,76.9z"/>
			<g>
				<g>
					<defs>
						<path id="SVGID_1_" d="M82.5,76.9c-0.5-0.3-1.1-0.3-1.6,0l-13.3,7.7c-0.5,0.3-0.8,0.8-0.8,1.4v15.4c0,0.6,0.3,1.1,0.8,1.4
							l13.3,7.7c0.5,0.3,1.1,0.3,1.6,0l13.3-7.7c0.5-0.3,0.8-0.8,0.8-1.4V86c0-0.6-0.3-1.1-0.8-1.4L82.5,76.9z"/>
					</defs>
					<clipPath id="SVGID_2_">
						<use xlink:href="#SVGID_1_"  style="overflow:visible;"/>
					</clipPath>
					<g class="st6">
						<path class="st7" d="M80.8,76.9l-13.3,7.7c-0.5,0.3-0.8,0.8-0.8,1.4v15.4c0,0.4,0.1,0.7,0.4,1l15-25.6
							C81.6,76.7,81.2,76.7,80.8,76.9z"/>
						<path class="st7" d="M82.1,110.6c0.1,0,0.2-0.1,0.3-0.1l13.3-7.7c0.5-0.3,0.7-0.8,0.7-1.4V86c0-0.4-0.1-0.7-0.3-1L82.1,110.6z
							"/>
						<path class="st8" d="M95.7,84.6l-13.2-7.7c-0.1-0.1-0.3-0.1-0.4-0.2l-15,25.6c0.1,0.2,0.3,0.3,0.5,0.4l13.3,7.7
							c0.4,0.2,0.9,0.3,1.3,0.1l14-25.6C96,84.8,95.9,84.7,95.7,84.6z"/>
					</g>
				</g>
				<g>
					<defs>
						<path id="SVGID_3_" d="M82.5,76.9c-0.5-0.3-1.1-0.3-1.6,0l-13.3,7.7c-0.5,0.3-0.8,0.8-0.8,1.4v15.4c0,0.6,0.3,1.1,0.8,1.4
							l13.3,7.7c0.5,0.3,1.1,0.3,1.6,0l13.3-7.7c0.5-0.3,0.8-0.8,0.8-1.4V86c0-0.6-0.3-1.1-0.8-1.4L82.5,76.9z"/>
					</defs>
					<clipPath id="SVGID_4_">
						<use xlink:href="#SVGID_3_"  style="overflow:visible;"/>
					</clipPath>
					<g class="st9">
						<path class="st7" d="M67.7,84.5l-0.2,0.1c-0.5,0.3-0.8,0.8-0.8,1.4v15.4c0,0.6,0.3,1.1,0.8,1.4l13.3,7.7
							c0.4,0.2,0.8,0.3,1.2,0.2L67.7,84.5z"/>
						<path class="st7" d="M96.4,86c0-0.6-0.2-1.1-0.7-1.4l-13.2-7.7c-0.1-0.1-0.2-0.1-0.4-0.2l14.4,24.5V86H96.4z"/>
						
							<linearGradient id="SVGID_5_" gradientUnits="userSpaceOnUse" x1="66.5582" y1="106.3299" x2="97.3098" y2="106.3299" gradientTransform="matrix(1 0 0 -1 0 200)">
							<stop  offset="0" style="stop-color:#5C5C5C"/>
							<stop  offset="0.1765" style="stop-color:#545454"/>
							<stop  offset="0.4577" style="stop-color:#3D3D3D"/>
							<stop  offset="0.8062" style="stop-color:#171717"/>
							<stop  offset="0.9947" style="stop-color:#000000"/>
						</linearGradient>
						<path class="st10" d="M82.4,110.4l13.3-7.7c0.5-0.3,0.7-0.8,0.7-1.4v-0.1L82.1,76.8c-0.4-0.1-0.9-0.1-1.2,0.2l-13.2,7.6
							l14.3,26C82.2,110.6,82.3,110.5,82.4,110.4z"/>
					</g>
				</g>
			</g>
		</g>
	</g>
</g>
<g id="Layer_7" class="st0">
	<rect class="st1" width="200" height="200"/>
	<g class="st2">
		<g>
			<path d="M163,100c0-8.3-10.5-16.3-26.5-21.2c3.7-16.3,2.1-29.3-5.2-33.5c-1.7-1-3.6-1.4-5.7-1.4l0,0c-7.1,0-16.3,5-25.7,13.8
				C90.6,49,81.4,44,74.3,44l0,0c-2.2,0-4.1,0.5-5.8,1.4c-7.2,4.2-8.8,17.1-5.1,33.4C47.4,83.8,37,91.7,37,100s10.5,16.3,26.5,21.2
				c-3.7,16.3-2.1,29.3,5.2,33.5c1.7,1,3.6,1.4,5.8,1.4c7.1,0,16.3-5,25.7-13.8c9.3,8.7,18.6,13.7,25.7,13.7c2.2,0,4.1-0.5,5.8-1.4
				c7.2-4.2,8.8-17.1,5.1-33.4C152.6,116.2,163,108.3,163,100z M125.6,49.6L125.6,49.6c1.2,0,2.1,0.3,2.9,0.7c3.5,2,5,9.6,3.8,19.4
				c-0.3,2.4-0.7,5-1.3,7.6c-5-1.2-10.5-2.2-16.3-2.8c-3.5-4.8-7.1-9.1-10.7-12.8C112.4,53.9,120.2,49.6,125.6,49.6z M77.2,113.2
				c1.2,2.1,2.4,4.1,3.7,6c-3.6-0.5-7.2-1.2-10.5-2c1-3.3,2.1-6.7,3.5-10.1C74.9,109.1,76,111.1,77.2,113.2z M70.3,82.9
				c3.4-0.8,6.9-1.5,10.6-2c-1.3,2-2.5,4-3.7,6.1c-1.2,2-2.3,4-3.3,6.1C72.5,89.7,71.3,86.2,70.3,82.9z M76.9,100.1
				c1.6-3.4,3.4-6.9,5.3-10.2c2-3.5,4.1-6.8,6.2-9.8c3.8-0.3,7.7-0.5,11.6-0.5s7.8,0.2,11.6,0.5c2.1,3.1,4.2,6.3,6.2,9.8
				c2,3.4,3.7,6.8,5.3,10.2c-1.6,3.4-3.4,6.9-5.3,10.2c-2,3.5-4.1,6.8-6.2,9.8c-3.8,0.3-7.7,0.5-11.6,0.5s-7.8-0.2-11.6-0.5
				c-2.1-3.1-4.2-6.3-6.2-9.8C80.3,106.9,78.5,103.5,76.9,100.1z M122.8,113.1c1.2-2.1,2.3-4.1,3.3-6.2c1.4,3.4,2.6,6.9,3.5,10.2
				c-3.4,0.8-6.9,1.5-10.6,2.1C120.3,117.2,121.6,115.2,122.8,113.1z M122.7,86.9c-1.2-2.1-2.4-4.1-3.7-6c3.6,0.5,7.2,1.2,10.5,2
				c-1,3.3-2.1,6.7-3.5,10.1C125,91,123.9,88.9,122.7,86.9z M107.1,73.9c-2.3-0.1-4.7-0.2-7.1-0.2s-4.8,0.1-7.1,0.2
				c2.3-3,4.7-5.8,7.1-8.2C102.3,68.2,104.7,70.9,107.1,73.9z M71.3,50.4c0.8-0.5,1.8-0.7,3-0.7l0,0c5.3,0,13.2,4.2,21.6,12
				c-3.6,3.8-7.2,8.1-10.6,12.8C79.5,75.1,74,76.1,69,77.3c-0.6-2.6-1-5.1-1.3-7.4C66.4,60.1,67.9,52.4,71.3,50.4z M64.9,115.6
				c-2.5-0.8-5-1.7-7.2-2.6c-9.1-3.9-15-9-15-13s5.9-9.1,15-13c2.2-1,4.6-1.8,7.1-2.6c1.5,5,3.4,10.3,5.8,15.6
				C68.2,105.4,66.3,110.6,64.9,115.6z M74.4,150.4c-1.2,0-2.1-0.3-2.9-0.7c-3.5-2-5-9.6-3.8-19.4c0.3-2.4,0.7-5,1.3-7.6
				c5,1.2,10.5,2.2,16.3,2.8c3.5,4.8,7.1,9.1,10.7,12.8C87.6,146.1,79.7,150.4,74.4,150.4z M100.1,134.3c-2.4-2.5-4.8-5.2-7.1-8.2
				c2.3,0.1,4.7,0.2,7.1,0.2s4.8-0.1,7.1-0.2C104.8,129.1,102.4,131.8,100.1,134.3z M128.7,149.6c-0.8,0.5-1.8,0.7-3,0.7
				c-5.3,0-13.2-4.2-21.6-12c3.6-3.8,7.2-8.1,10.6-12.8c5.8-0.6,11.3-1.6,16.3-2.8c0.6,2.6,1.1,5.1,1.3,7.5
				C133.6,139.9,132.1,147.6,128.7,149.6z M142.3,113c-2.2,1-4.6,1.8-7.1,2.6c-1.5-5-3.4-10.3-5.8-15.6c2.4-5.3,4.3-10.6,5.7-15.6
				c2.5,0.8,5,1.7,7.2,2.6c9.1,3.9,15,9,15,13C157.3,104,151.4,109.2,142.3,113z"/>
		</g>
		<g>
			<circle cx="100" cy="100" r="11.7"/>
		</g>
	</g>
</g>
<g id="Layer_8">
	<g>
		<polygon class="st11" points="113.5,49.2 100,72.7 86.5,49.2 41.4,49.2 100,150.8 158.6,49.2 		"/>
		<polygon class="st12" points="113.5,49.2 100,72.7 86.5,49.2 64.8,49.2 100,110.2 135.2,49.2 		"/>
	</g>
	<rect class="st7" width="200" height="200"/>
</g>
</svg>
