<?xml version="1.0" encoding="utf-8"?>
<!-- Generator: Adobe Illustrator 21.0.0, SVG Export Plug-In . SVG Version: 6.00 Build 0)  -->
<svg version="1.1" id="Layer_1" xmlns="http://www.w3.org/2000/svg" xmlns:xlink="http://www.w3.org/1999/xlink" x="0px" y="0px"
	 viewBox="0 0 179.1 206" style="enable-background:new 0 0 179.1 206;" xml:space="preserve">
<style type="text/css">
	.st0{fill:#26867D;}
	.st1{fill:#7FC7C7;}
	.st2{fill:#2FA46A;}
	.st3{fill:#80BA55;}
	.st4{fill:#74B437;}
	.st5{fill:#B6D180;}
	.st6{fill:#3AB9CE;}
	.st7{fill:#48AB4F;}
	.st8{fill:#5A7CB5;}
	.st9{fill:#366D49;}
	.st10{fill:#289DD6;}
	.st11{fill:#233A6F;}
	.st12{fill:#2476B8;}
	.st13{fill:#2B8DA7;}
	.st14{fill:#25539C;}
	.st15{fill:#19617F;}
	.st16{fill:#6FC5D5;}
	.st17{fill:#1E4685;}
	.st18{fill:#1C6594;}
	.st19{fill:#232F57;}
	.st20{fill:#1E6B98;}
	.st21{fill:#90C6E6;}
	.st22{fill:#2A3478;}
	.st23{fill:#32AFAB;}
	.st24{fill:#4FB9BA;}
	.st25{fill:#86BDDA;}
	.st26{fill:#35B2A7;}
	.st27{fill:#1967AC;}
	.st28{fill:#90B232;}
	.st29{fill:#18B2BC;}
	.st30{fill:#D83287;}
	.st31{fill:#D32260;}
	.st32{fill:#F19874;}
	.st33{fill:#E65431;}
	.st34{fill:#D24730;}
	.st35{fill:#512A75;}
	.st36{fill:#343184;}
	.st37{fill:#2481B3;}
	.st38{fill:#226D97;}
	.st39{fill:#38A6DC;}
	.st40{fill:#BBD9EC;}
	.st41{fill:#1573B4;}
	.st42{fill:#0E6CAF;}
	.st43{fill:#3F768A;}
	.st44{fill:#105579;}
	.st45{fill:#E1AECF;}
	.st46{fill:#D17DAF;}
	.st47{fill:#E32D70;}
	.st48{fill:#F19F8C;}
	.st49{fill:#AB3185;}
	.st50{fill:#343687;}
	.st51{fill:#E64F80;}
	.st52{fill:#58367A;}
	.st53{fill:#C04F94;}
	.st54{fill:#AA2D84;}
	.st55{fill:#C2599A;}
	.st56{fill:#7B4E96;}
	.st57{fill:#CAD338;}
	.st58{fill:#E0EBF4;}
	.st59{fill:#32ACC6;}
	.st60{fill:#A8CDDE;}
	.st61{fill:#97C4DC;}
	.st62{fill:#2A59A1;}
	.st63{fill:#2777B8;}
	.st64{fill:#1D417E;}
	.st65{fill:#257FBA;}
	.st66{fill:#6598AC;}
	.st67{fill:#BED5E6;}
	.st68{fill:#2178A8;}
	.st69{fill:#1473B4;}
	.st70{fill:#2A3474;}
	.st71{fill:#195482;}
	.st72{fill:#B1C2DF;}
	.st73{fill:#B9DCD4;}
	.st74{fill:#75C2B4;}
	.st75{fill:#8FCED4;}
	.st76{fill:#31A896;}
	.st77{fill:#1E7046;}
	.st78{fill:#27563D;}
	.st79{fill:#AF3B8A;}
	.st80{fill:#9F2A7E;}
	.st81{fill:#EA81A8;}
	.st82{fill:#4E3E8C;}
	.st83{fill:#803989;}
	.st84{fill:#3C2A6F;}
	.st85{fill:#8B7AA3;}
	.st86{fill:#6A418E;}
	.st87{fill:#4F3285;}
	.st88{fill:#7F5C9F;}
	.st89{fill:#4D4F98;}
	.st90{fill:#4F6196;}
	.st91{fill:#DD2082;}
	.st92{fill:#E5447B;}
	.st93{fill:#EA6C30;}
	.st94{fill:#F4A767;}
	.st95{fill:#F6B242;}
	.st96{fill:#CB94B2;}
	.st97{fill:#ED8131;}
	.st98{fill:#DF5A33;}
	.st99{fill:#DF2E4E;}
	.st100{fill:none;}
	.st101{fill:#FFFFFF;}
</style>
<g>
	<path class="st0" d="M35.9,31v20.5l17.8-10.2L35.9,31z"/>
	<path class="st1" d="M35.9,51.4V31l-18,10.2L35.9,51.4z"/>
	<path class="st2" d="M35.9,51.4v20.7l17.8-10.2L35.9,51.4z"/>
	<path class="st3" d="M35.9,72.2V51.4l-18,10.5L35.9,72.2z"/>
	<path class="st4" d="M35.9,72.2v20.5l17.8-10.2L35.9,72.2z"/>
	<path class="st5" d="M35.9,92.6V72.2l-18,10.2L35.9,92.6z"/>
	<path class="st6" d="M35.9,92.6v20.7l17.8-10.2L35.9,92.6z"/>
	<path class="st7" d="M35.9,113.4V92.6l-18,10.5L35.9,113.4z"/>
	<path class="st8" d="M35.9,113.4v20.5l17.8-10.2L35.9,113.4z"/>
	<path class="st9" d="M35.9,133.8v-20.5l-18,10.2L35.9,133.8z"/>
	<path class="st10" d="M35.9,133.8v20.7l17.8-10.5L35.9,133.8z"/>
	<path class="st11" d="M35.9,154.3v-20.5l-18,10.2L35.9,154.3z"/>
	<path class="st12" d="M35.9,154.6V175l17.8-10.2L35.9,154.6z"/>
	<path class="st13" d="M35.9,175v-20.5l-18,10.2L35.9,175z"/>
	<path class="st14" d="M71.5,10.2V31l18-10.5L71.5,10.2z"/>
	<path class="st15" d="M71.5,31V10.2L53.7,20.7L71.5,31z"/>
	<path class="st14" d="M71.5,31v20.5l18-10.2L71.5,31z"/>
	<path class="st16" d="M71.5,51.4V31L53.7,41.2L71.5,51.4z"/>
	<path class="st17" d="M71.5,51.4v20.7l18-10.5L71.5,51.4z"/>
	<path class="st13" d="M71.5,72.2V51.4L53.7,61.9L71.5,72.2z"/>
	<path class="st18" d="M71.5,72.2v20.5l18-10.2L71.5,72.2z"/>
	<path class="st19" d="M71.5,92.6V72.2L53.7,82.4L71.5,92.6z"/>
	<path class="st20" d="M71.5,92.6v20.7l18-10.5L71.5,92.6z"/>
	<path class="st21" d="M71.5,113.4V92.6l-17.8,10.5L71.5,113.4z"/>
	<path class="st8" d="M71.5,113.4v20.5l18-10.2L71.5,113.4z"/>
	<path class="st22" d="M71.5,133.8v-20.5l-17.8,10.2L71.5,133.8z"/>
	<path class="st8" d="M71.5,133.8v20.7l18-10.5L71.5,133.8z"/>
	<path class="st14" d="M71.5,154.6v-20.7l-17.8,10.2L71.5,154.6z"/>
	<path class="st23" d="M71.5,154.6V175l18-10.2L71.5,154.6z"/>
	<path class="st17" d="M71.5,175v-20.5l-17.8,10.2L71.5,175z"/>
	<path class="st24" d="M71.5,175v20.7l18-10.5L71.5,175z"/>
	<path class="st25" d="M71.5,195.8V175l-17.8,10.2L71.5,195.8z"/>
	<path class="st26" d="M0,51.7v20.5l17.8-10.2L0,51.7z"/>
	<path class="st1" d="M0,72.2v20.7l17.8-10.5L0,72.2z"/>
	<path class="st27" d="M0,92.9v20.5l17.8-10.2L0,92.9z"/>
	<path class="st28" d="M0,113.4v20.7l17.8-10.5L0,113.4z"/>
	<path class="st29" d="M0,133.8v20.7l17.8-10.2L0,133.8z"/>
	<path class="st30" d="M178.9,71.9V51.4l-17.8,10.2L178.9,71.9z"/>
	<path class="st31" d="M178.9,92.6V71.9l-17.8,10.5L178.9,92.6z"/>
	<path class="st32" d="M178.9,113.1V92.6l-17.8,10.2L178.9,113.1z"/>
	<path class="st33" d="M178.9,133.8v-20.7l-17.8,10.5L178.9,133.8z"/>
	<path class="st34" d="M178.9,154.3v-20.5l-17.8,10.2L178.9,154.3z"/>
	<path class="st35" d="M107.4,10.2V31l17.8-10.5L107.4,10.2z"/>
	<path class="st36" d="M107.4,31V10.2L89.6,20.7L107.4,31z M107.4,31v20.5l17.8-10.2L107.4,31z"/>
	<path class="st37" d="M107.4,51.4V31L89.6,41.2L107.4,51.4z"/>
	<path class="st8" d="M107.4,51.4v20.7l17.8-10.5L107.4,51.4z"/>
	<path class="st37" d="M107.4,72.2V51.4L89.6,61.9L107.4,72.2z"/>
	<path class="st8" d="M107.4,72.2v20.5l17.8-10.2L107.4,72.2z"/>
	<path class="st38" d="M107.4,92.6V72.2L89.6,82.4L107.4,92.6z"/>
	<path class="st39" d="M107.4,92.6v20.7l17.8-10.5L107.4,92.6z"/>
	<path class="st15" d="M107.4,113.4V92.6l-17.8,10.5L107.4,113.4z"/>
	<path class="st8" d="M107.4,113.4v20.5l17.8-10.2L107.4,113.4z"/>
	<path class="st40" d="M107.4,133.8v-20.5l-17.8,10.2L107.4,133.8z"/>
	<path class="st8" d="M107.4,133.8v20.7l17.8-10.5L107.4,133.8z"/>
	<path class="st19" d="M107.4,154.6v-20.7l-17.8,10.2L107.4,154.6z"/>
	<path class="st41" d="M107.4,154.6V175l17.8-10.2L107.4,154.6z"/>
	<path class="st42" d="M107.4,175v-20.5l-17.8,10.2L107.4,175z"/>
	<path class="st43" d="M107.4,175v20.5l17.8-10.2L107.4,175z"/>
	<path class="st44" d="M107.4,195.5V175l-17.8,10.2L107.4,195.5z"/>
	<path class="st45" d="M143.3,31v20.5l17.8-10.2L143.3,31z"/>
	<path class="st46" d="M143.3,51.4V31l-18,10.2L143.3,51.4z"/>
	<path class="st34" d="M143.3,51.4v20.7l17.8-10.5L143.3,51.4z"/>
	<path class="st47" d="M143.3,72.2V51.4l-18,10.2L143.3,72.2z"/>
	<path class="st48" d="M143.3,72.2v20.5l17.8-10.2L143.3,72.2z"/>
	<path class="st49" d="M143.3,92.6V72.2l-18,10.2L143.3,92.6z"/>
	<path class="st46" d="M143.3,92.6v20.5l17.8-10.2L143.3,92.6z"/>
	<path class="st50" d="M143.3,113.1V92.6l-18,10.2L143.3,113.1z"/>
	<path class="st51" d="M143.3,113.1v20.7l17.8-10.2L143.3,113.1z"/>
	<path class="st52" d="M143.3,133.8v-20.7l-18,10.5L143.3,133.8z"/>
	<path class="st53" d="M143.3,133.8v20.5l17.8-10.2L143.3,133.8z"/>
	<path class="st54" d="M143.3,154.3v-20.5l-18,10.2L143.3,154.3z"/>
	<path class="st55" d="M143.3,154.3V175l17.8-10.5L143.3,154.3z"/>
	<path class="st56" d="M143.3,175v-20.7l-18,10.5L143.3,175z"/>
	<path class="st3" d="M53.7,20.7v20.5L71.5,31L53.7,20.7z"/>
	<path class="st7" d="M53.7,41.2V20.7L35.9,31L53.7,41.2z"/>
	<path class="st15" d="M53.7,41.2v20.7l17.8-10.5L53.7,41.2z"/>
	<path class="st0" d="M53.7,61.9V41.2L35.9,51.4L53.7,61.9z"/>
	<path class="st8" d="M53.7,61.9v20.5l17.8-10.2L53.7,61.9z"/>
	<path class="st57" d="M53.7,82.4V61.9L35.9,72.2L53.7,82.4z"/>
	<path class="st58" d="M53.7,82.4v20.7l17.8-10.5L53.7,82.4z"/>
	<path class="st13" d="M53.7,103.1V82.4L35.9,92.6L53.7,103.1z"/>
	<path class="st37" d="M53.7,103.1v20.5l17.8-10.2L53.7,103.1z"/>
	<path class="st23" d="M53.7,123.6v-20.5l-17.8,10.2L53.7,123.6z"/>
	<path class="st59" d="M53.7,123.6v20.5l17.8-10.2L53.7,123.6z"/>
	<path class="st13" d="M53.7,144.1v-20.5l-17.8,10.2L53.7,144.1z"/>
	<path class="st8" d="M53.7,144.1v20.7l17.8-10.2L53.7,144.1z"/>
	<path class="st19" d="M53.7,164.8v-20.7l-17.8,10.5L53.7,164.8z"/>
	<path class="st60" d="M53.7,164.8v20.5L71.5,175L53.7,164.8z"/>
	<path class="st61" d="M53.7,185.3v-20.5L35.9,175L53.7,185.3z"/>
	<path class="st62" d="M89.6,0v20.5l17.8-10.2L89.6,0z"/>
	<path class="st63" d="M89.6,20.5V0L71.7,10.2L89.6,20.5z"/>
	<path class="st11" d="M89.6,20.5v20.7L107.4,31L89.6,20.5z"/>
	<path class="st19" d="M89.6,41.2V20.5L71.7,31L89.6,41.2z"/>
	<path class="st22" d="M89.6,41.2v20.5l17.8-10.2L89.6,41.2z"/>
	<path class="st64" d="M89.6,61.7V41.2L71.7,51.4L89.6,61.7z"/>
	<path class="st65" d="M89.6,61.7v20.7l17.8-10.2L89.6,61.7z"/>
	<path class="st10" d="M89.6,82.4V61.7L71.7,72.2L89.6,82.4z"/>
	<path class="st66" d="M89.6,82.4v20.5l17.8-10.2L89.6,82.4z"/>
	<path class="st67" d="M89.6,102.9V82.4L71.7,92.6L89.6,102.9z"/>
	<path class="st14" d="M89.6,102.9v20.7l17.8-10.5L89.6,102.9z"/>
	<path class="st68" d="M89.6,123.6v-20.7l-17.8,10.5L89.6,123.6z"/>
	<path class="st69" d="M89.6,123.6v20.5l17.8-10.2L89.6,123.6z"/>
	<path class="st70" d="M89.6,144.1v-20.5l-17.8,10.2L89.6,144.1z"/>
	<path class="st43" d="M89.6,144.1v20.7l17.8-10.5L89.6,144.1z"/>
	<path class="st71" d="M89.6,164.8v-20.7l-17.8,10.5L89.6,164.8z"/>
	<path class="st11" d="M89.6,164.8v20.5l17.8-10.2L89.6,164.8z"/>
	<path class="st59" d="M89.6,185.3v-20.5L71.7,175L89.6,185.3z"/>
	<path class="st72" d="M89.6,185.3V206l17.8-10.5L89.6,185.3z"/>
	<path class="st41" d="M89.6,206v-20.7l-17.8,10.5L89.6,206z"/>
	<path class="st73" d="M18,41.2v20.7l17.8-10.5L18,41.2z"/>
	<path class="st74" d="M18,61.9V41.2L0,51.7L18,61.9z"/>
	<path class="st75" d="M18,61.9v20.5l17.8-10.2L18,61.9z"/>
	<path class="st76" d="M18,82.4V61.9L0,72.2L18,82.4z"/>
	<path class="st3" d="M18,82.4v20.7l17.8-10.5L18,82.4z"/>
	<path class="st6" d="M18,103.1V82.4L0,92.9L18,103.1z"/>
	<path class="st2" d="M18,103.1v20.5l17.8-10.2L18,103.1z"/>
	<path class="st0" d="M18,123.6v-20.5L0,113.4L18,123.6z"/>
	<path class="st15" d="M18,123.6v20.7l17.8-10.5L18,123.6z"/>
	<path class="st77" d="M18,144.3v-20.7L0,134.1L18,144.3z"/>
	<path class="st0" d="M18,144.3v20.5l17.8-10.2L18,144.3z"/>
	<path class="st78" d="M18,164.8v-20.5L0,154.6L18,164.8z"/>
	<path class="st79" d="M125.2,20.5v20.7l18-10.2L125.2,20.5z"/>
	<path class="st80" d="M125.2,41.2V20.5L107.4,31L125.2,41.2z"/>
	<path class="st81" d="M125.2,41.2v20.5l18-10.2L125.2,41.2z"/>
	<path class="st82" d="M125.2,61.7V41.2l-17.8,10.2L125.2,61.7z"/>
	<path class="st80" d="M125.2,61.7v20.7l18-10.5L125.2,61.7z"/>
	<path class="st42" d="M125.2,82.4V61.7l-17.8,10.5L125.2,82.4z"/>
	<path class="st83" d="M125.2,82.4v20.5l18-10.2L125.2,82.4z"/>
	<path class="st84" d="M125.2,102.9V82.4l-17.8,10.2L125.2,102.9z"/>
	<path class="st85" d="M125.2,102.9v20.7l18-10.5L125.2,102.9z"/>
	<path class="st68" d="M125.2,123.6v-20.7l-17.8,10.5L125.2,123.6z"/>
	<path class="st86" d="M125.2,123.6v20.5l18-10.2L125.2,123.6z"/>
	<path class="st87" d="M125.2,144.1v-20.5l-17.8,10.2L125.2,144.1z"/>
	<path class="st27" d="M125.2,144.1v20.7l18-10.5L125.2,144.1z"/>
	<path class="st88" d="M125.2,164.8v-20.7l-17.8,10.5L125.2,164.8z"/>
	<path class="st89" d="M125.2,164.8v20.5l18-10.2L125.2,164.8z"/>
	<path class="st90" d="M125.2,185.3v-20.5L107.4,175L125.2,185.3z"/>
	<path class="st91" d="M161.1,41.2v20.5l18-10.2L161.1,41.2z"/>
	<path class="st31" d="M161.1,61.7V41.2l-17.8,10.2L161.1,61.7z"/>
	<path class="st92" d="M161.1,61.7v20.7l18-10.5L161.1,61.7z"/>
	<path class="st93" d="M161.1,82.4V61.7l-17.8,10.5L161.1,82.4z"/>
	<path class="st94" d="M161.1,82.4v20.5l18-10.2L161.1,82.4z"/>
	<path class="st95" d="M161.1,102.9V82.4l-17.8,10.2L161.1,102.9z"/>
	<path class="st94" d="M161.1,102.9v20.7l18-10.5L161.1,102.9z"/>
	<path class="st96" d="M161.1,123.6v-20.7l-17.8,10.2L161.1,123.6z"/>
	<path class="st97" d="M161.1,123.6v20.5l18-10.2L161.1,123.6z"/>
	<path class="st81" d="M161.1,144.1v-20.5l-17.8,10.2L161.1,144.1z"/>
	<path class="st98" d="M161.1,144.1v20.5l18-10.2L161.1,144.1z"/>
	<path class="st99" d="M161.1,164.6v-20.5l-17.8,10.2L161.1,164.6z"/>
	<path class="st100" d="M178.9,154.3V51.7L89.6,0.2L0,51.7v102.9l89.6,51.2L178.9,154.3z"/>
	<path class="st101" d="M110.9,59.2c-9.4-9.6-18.4-18.7-21.3-28.9c-2.7,10.2-11.7,19.3-21.1,28.9c-14.3,14.1-30.3,30.3-30.3,54.5
		c1.8,28.5,26.3,50.1,54.8,48.3c26-1.6,46.7-22.3,48.3-48.3C141.2,89.6,125.2,73.4,110.9,59.2z M64.6,118.5c-1.5,2-2.9,4.1-4.1,6.4
		c0,0.4-0.4,0.6-0.8,0.6h-0.4c-1.2-0.2-2.5-2.3-2.5-2.3c-0.4-0.6-0.8-1.2-1-1.8c-0.1-0.1-0.2-0.3-0.2-0.4c-2.9-7-0.4-16.6-0.4-16.6
		c1.2-4.7,3.3-9.2,6.1-13.1c1.7-2.5,3.5-4.9,5.5-7.2l2.5,2.3l11.5,11.9c0.6,0.4,0.7,1.2,0.3,1.7c0,0-0.1,0.1-0.1,0.1l-12.1,13.3
		L64.6,118.5z M90.2,152.1c-7.6,0-14.4-4.8-16.8-12.1c-2-6.1-0.6-12.9,3.7-17.6c3.7-4.3,8.4-8.8,13.3-14.6
		c5.9,6.4,9.6,10.7,13.5,15.4c0.3,0.4,0.6,0.8,0.8,1.2c2.1,2.9,3.3,6.4,3.3,10c0,9.7-7.9,17.6-17.6,17.6
		C90.3,152.1,90.3,152.1,90.2,152.1z M123.8,123.8c-0.3,0.7-0.9,1.3-1.6,1.4h-0.4c-0.7-0.2-1.3-0.6-1.6-1.2
		c-3-4.7-6.5-9.1-10.5-13.1l-4.7-4.9L89.2,89.6c-2.5-2.5-7.4-7.2-9.2-9.6l-0.4-0.4l-1.2-2.5v-0.4c-0.2-1.6,0-3.2,0.6-4.7
		c0.4-1,1-1.8,1.8-2.5c3.1-3.1,5.9-6.1,8.8-9.4l10,10.2c6.9,6.3,13,13.3,18.4,20.9c4.6,6.6,7.1,14.3,7.2,22.3
		C125.3,117,124.8,120.5,123.8,123.8z"/>
</g>
</svg>
