<?xml version="1.0" encoding="utf-8"?>
<!-- Generator: Adobe Illustrator 21.0.0, SVG Export Plug-In . SVG Version: 6.00 Build 0)  -->
<svg version="1.1" id="WordPress" xmlns="http://www.w3.org/2000/svg" xmlns:xlink="http://www.w3.org/1999/xlink" x="0px" y="0px"
	 viewBox="0 0 701 179.6" style="enable-background:new 0 0 701 179.6;" xml:space="preserve">
<style type="text/css">
	.st0{fill:#FFFFFF;}
</style>
<g>
	<path class="st0" d="M328.3,33.6h-29.5l0,55.1c0,16.1-6.9,29.1-23,29.1c-16.1,0-23.1-13-23.1-29.1V33.7h-29.4l0,55.1
		c0,31.8,20.5,57.6,52.3,57.6c31.8,0,52.6-25.8,52.6-57.6L328.3,33.6z"/>
	<rect x="594" y="0.1" class="st0" width="29.3" height="143.5"/>
	<g>
		<path class="st0" d="M644.9,5.4V0.2h22.8v5.2h-8.4v22.7h-6.1V5.4H644.9z"/>
		<path class="st0" d="M679.6,0.2l6.5,19.2h0.1l6.2-19.2h8.6v27.9h-5.7V8.3h-0.1l-6.8,19.8h-4.7l-6.8-19.6h-0.1v19.6H671V0.2H679.6z
			"/>
	</g>
	<path class="st0" d="M199.5,32.4c-25.3-5.8-41.2,19.3-41.9,20.6c-0.3,0.7-0.3,1-1.5,1c-0.9,0-1-1-1-1L152,33.9h-26.3v109.6h29.4
		V84.1c0-4.8,13.1-28.1,38.3-22.1c12.8,3,18.2,8.5,18.2,8.5s0-21.2,0-33.4C207,34.6,203.7,33.4,199.5,32.4z"/>
	<path class="st0" d="M368.3,179.6v-39.4c0,0,0,0,0,0l0-14.8c0,0,0-1.2,1.1-1.2c1,0,1.2,0.6,1.4,1.2c2.2,5.6,14.5,26.7,41.7,20.1
		c24.4-6.9,42.3-29.3,42.3-55.9c0-32-26-58-58-58s-58,26-58,58c0,0,0,79.3,0,90H368.3z M396.8,60.2c16.2,0,29.4,13.2,29.4,29.4
		c0,16.2-13.1,29.4-29.4,29.4c-16.2,0-29.4-13.2-29.4-29.4C367.4,73.4,380.6,60.2,396.8,60.2z"/>
	<path class="st0" d="M552.5,143.5h29.5V89.6c0-32-26-58-58-58c-32,0-58,26-58,58c0,26.6,17.9,49,42.3,55.9
		c27.2,6.6,39.5-14.5,41.7-20.1c0.2-0.6,0.4-1.2,1.4-1.2c1.1,0,1.1,1.2,1.1,1.2 M553.4,89.6c0,16.2-13.2,29.4-29.4,29.4
		c-16.2,0-29.4-13.2-29.4-29.4c0-16.2,13.2-29.4,29.4-29.4C540.2,60.2,553.4,73.4,553.4,89.6z"/>
	<g>
		<path class="st0" d="M33.5,143.3H0V0h35.9c43.5,0,76.5,8,76.5,71.6C112.4,134.7,77.5,143.3,33.5,143.3z M41.5,24.8H29.6v93.6
			l12.2,0.3c24.9,0,41-2.3,41-47.1C82.8,28.7,68.6,24.8,41.5,24.8z"/>
	</g>
</g>
</svg>
