<?xml version="1.0" encoding="utf-8"?>
<!-- Generator: Adobe Illustrator 21.0.0, SVG Export Plug-In . SVG Version: 6.00 Build 0)  -->
<svg version="1.1" id="Ebene_1" xmlns="http://www.w3.org/2000/svg" xmlns:xlink="http://www.w3.org/1999/xlink" x="0px" y="0px"
	 viewBox="0 0 303.1 84.2" style="enable-background:new 0 0 303.1 84.2;" xml:space="preserve">
<style type="text/css">
	.st0{fill:#FFFFFF;}
</style>
<g>
	<path class="st0" d="M121.3,28.4v55.2h-7.7V28.4H99.9v-6.7h34.9v6.7H121.3z M162.5,54.8v28.7h-8V54.8l-15.8-33.2h8.5l11.7,25
		l11.7-25h8.1L162.5,54.8z M202.5,60.2h-7.4v23.3h-7.7V21.7c0,0,7.6-0.6,15-0.6c13.4,0,17.3,8.3,17.3,19.2
		C219.7,53.7,215.1,60.2,202.5,60.2 M203.4,27.4c-4.9,0-8.3,0.5-8.3,0.5v25.8h8.3c5,0,8.4-3.3,8.4-12.9
		C211.8,32,209.7,27.4,203.4,27.4 M247.4,84.2c-14.6,0-18.5-10.6-18.5-32.3c0-20.8,3.9-30.9,18.5-30.9c14.6,0,18.5,10.1,18.5,30.9
		C265.9,73.6,262,84.2,247.4,84.2 M247.4,27.5c-8,0-10.6,5.4-10.6,24.9c0,19,2.7,25.4,10.6,25.4S258,71.3,258,52.3
		C258,32.9,255.4,27.5,247.4,27.5 M288.1,84.2c-4.3,0-10.8-1.3-11.6-1.5v-6.4c2.1,0.4,7.6,1.3,11.5,1.3c4.5,0,7.4-3.8,7.4-10.6
		c0-8-1.3-12.3-7.6-12.3h-7.3v-6.5h6.4c7.2,0,7.5-7.3,7.5-10.9c0-7-2.2-9.8-6.6-9.8c-3.9,0-8.3,1-10.9,1.5v-6.5
		c1-0.2,6.2-1.5,10.7-1.5c9.1,0,14.3,3.9,14.3,17.1c0,6-2.1,11.3-6.8,13c5.4,0.4,7.9,6.3,7.9,14.9C303.1,79.2,297.9,84.2,288.1,84.2
		"/>
	<path class="st0" d="M62.9,58c-1.2,0.4-2.2,0.5-3.5,0.5c-10.7,0-26.4-37.4-26.4-49.8c0-4.6,1.1-6.1,2.6-7.4
		C22.5,2.8,6.8,7.6,1.7,13.7c-1.1,1.5-1.7,3.9-1.7,7c0,19.4,20.7,63.5,35.3,63.5C42.1,84.2,53.5,73.1,62.9,58"/>
	<path class="st0" d="M56,0c13.5,0,27,2.2,27,9.8c0,15.5-9.8,34.2-14.8,34.2c-8.9,0-20.1-24.9-20.1-37.3C48.2,1.1,50.4,0,56,0"/>
</g>
</svg>
