<?xml version="1.0" encoding="utf-8"?>
<!-- Generator: Adobe Illustrator 21.0.0, SVG Export Plug-In . SVG Version: 6.00 Build 0)  -->
<svg version="1.1" id="Capa_1" xmlns="http://www.w3.org/2000/svg" xmlns:xlink="http://www.w3.org/1999/xlink" x="0px" y="0px"
	 viewBox="0 0 296.5 76.8" style="enable-background:new 0 0 296.5 76.8;" xml:space="preserve">
<style type="text/css">
	.st0{fill:#099CEC;}
	.st1{fill:#FFFFFF;}
	.st2{fill:#4D5C64;enable-background:new    ;}
	.st3{opacity:5.000000e-02;enable-background:new    ;}
	.st4{fill:#066DA5;}
</style>
<g>
	<rect x="10.5" y="27.2" class="st0" width="11" height="10"/>
	<rect x="23.5" y="27.2" class="st0" width="11" height="10"/>
	<rect x="36.5" y="27.2" class="st0" width="11" height="10"/>
	<rect x="49.5" y="27.2" class="st0" width="11" height="10"/>
	<rect x="62.5" y="27.2" class="st0" width="11" height="10"/>
	<rect x="23.5" y="15.2" class="st0" width="11" height="10"/>
	<rect x="36.5" y="15.2" class="st0" width="11" height="10"/>
	<rect x="49.5" y="15.2" class="st0" width="11" height="10"/>
	<rect x="49.5" y="3.2" class="st0" width="11" height="10"/>
	<path class="st0" d="M106.3,30.3c-2.3-1.5-8.2-2.2-12.5-1c-0.2-4.3-2.4-7.9-6.5-11.1l-1.5-1l-1,1.5c-2,3-2.8,7-2.5,10.6
		c0.2,2.2,1,4.7,2.5,6.5c-1.1,0.9-4.7,2.6-9.5,2.5H3.8c-1.3,7.6,0.9,36.2,34,36.2c24.6,0,44.8-11,54-34.2c3,0,11.1,0.5,15-7
		c0.1-0.1,1-2,1-2L106.3,30.3z"/>
</g>
<path id="Fill-21" class="st1" d="M30.2,61c-8.2,2.8-16.9,3.2-18.8,3.2c6.1,5.1,17,14.7,35,9.2C43.1,72.5,35.4,69.5,30.2,61z"/>
<ellipse id="Oval" class="st1" cx="36.9" cy="54.4" rx="3.5" ry="3.5"/>
<path class="st2" d="M37.4,53.5c0-0.3,0.2-0.6,0.4-0.8c-0.3-0.1-0.6-0.2-0.9-0.2c-1.1,0-2,0.9-2,2c0,1.1,0.9,2,2,2c1.1,0,2-0.9,2-2
	c0,0,0-0.1,0-0.1c-0.1,0.1-0.3,0.1-0.5,0.1C37.8,54.5,37.4,54,37.4,53.5z"/>
<path id="Shape_2_" class="st3" d="M106,30.2c-2.2-1.5-8.4-2.2-12.5-1l-0.9,1.3c-13.4,27.7-30.2,39.5-53.1,40
	c-25-0.1-31.2-13.2-33-31.2h-4c-0.5,7.6,1.4,35.3,34.8,35.3c24.6,0,44.8-11,54.2-34.2c3.1,0.1,11.6,0.1,15.3-7.6l0.8-1.6L106,30.2z"
	/>
<g>
	<path class="st4" d="M94.3,27.9c-0.6-4-2.8-7.6-6.8-10.7l-2.4-1.6L83.6,18c-2,3.1-3,7.2-2.7,11.2c0.2,2.3,0.9,4.5,2.1,6.2
		c-1.7,0.9-4.5,1.7-7.5,1.8v-12h-13v-10v-2v-12h-15v12h-11h-2h-13v12h-13v12H3.4H2.6l-0.1,0.8C2,40.4,2,43.8,2.5,47.2
		c0.6,4.4,2,8.6,4.1,12.5c5.5,10,15.6,15.8,30.8,15.8c25.8,0,45.5-11.9,54.7-34.2c3.1,0.1,5.2-0.1,7.7-1c3.2-1.1,5.8-3.2,7.5-6.6
		c0.1-0.2,0.2-0.4,0.5-1.1c0.1-0.2,0.2-0.5,0.3-0.7c0-0.1,0.1-0.2,0.2-0.3l0.4-0.8l-2.2-1.5C104.1,27.7,98.6,27.1,94.3,27.9z
		 M60.5,37.2h-11v-10h11V37.2z M47.5,37.2l-11,0v-10h11V37.2z M34.5,37.2h-11v-10h11V37.2z M73.5,27.2v10l-11,0v-10H73.5z
		 M60.5,25.2h-11v-10h11V25.2z M49.5,3.2h11v10h-11V3.2z M36.5,15.2h11v10h-11V15.2z M23.5,15.2h11v10h-11V15.2z M10.5,27.2h11v10
		l-11,0V27.2z M106,31.8c-0.1,0.3-0.2,0.5-0.3,0.6c0,0.1-0.1,0.2-0.2,0.3c-1.5,2.9-3.7,4.7-6.4,5.6c-2.2,0.8-4.2,0.9-7.1,0.9
		c0,0-0.2,0-0.5,0l-0.7,0l-0.3,0.6c-8.7,21.9-27.9,33.6-53.1,33.6c-11,0-19.1-3.2-24.7-8.9c1.1,0.1,2.1,0.2,3.2,0.2
		c5.2,0,10-1.4,14.3-3.8c-0.4-0.6-0.7-1.2-1-1.8c-3.9,2.2-8.5,3.5-13.3,3.5c-1.8,0-3.5-0.2-5.2-0.5c-0.8-1.1-1.6-2.3-2.3-3.5
		c-2-3.6-3.3-7.6-3.9-11.8c-0.4-2.9-0.5-5.6-0.2-7.7h4.2v0h13h2h11h2h11h2h11h2h13v0c4,0,7.7-1.3,9.5-2.7l0.8-0.6l-0.7-0.8
		c-1.2-1.5-2-3.7-2.3-6c-0.3-3.5,0.6-7.2,2.3-9.9l0.4-0.7l0.6,0.4c3.9,3,5.9,6.4,6.1,10.3l0.1,1.2l1.2-0.3c3.9-1,9.6-0.5,11.7,0.9
		l0.8,0.5C106.1,31.6,106.1,31.7,106,31.8z"/>
	<rect x="12.5" y="29.2" class="st4" width="1" height="6"/>
	<rect x="15.5" y="29.2" class="st4" width="1" height="6"/>
	<rect x="18.5" y="29.2" class="st4" width="1" height="6"/>
	<rect x="25.5" y="29.2" class="st4" width="1" height="6"/>
	<rect x="28.5" y="29.2" class="st4" width="1" height="6"/>
	<rect x="31.5" y="29.2" class="st4" width="1" height="6"/>
	<rect x="38.5" y="29.2" class="st4" width="1" height="6"/>
	<rect x="41.5" y="29.2" class="st4" width="1" height="6"/>
	<rect x="44.5" y="29.2" class="st4" width="1" height="6"/>
	<rect x="51.5" y="29.2" class="st4" width="1" height="6"/>
	<rect x="54.5" y="29.2" class="st4" width="1" height="6"/>
	<rect x="57.5" y="29.2" class="st4" width="1" height="6"/>
	<rect x="64.5" y="29.2" class="st4" width="1" height="6"/>
	<rect x="67.5" y="29.2" class="st4" width="1" height="6"/>
	<rect x="70.5" y="29.2" class="st4" width="1" height="6"/>
	<rect x="28.5" y="17.2" class="st4" width="1" height="6"/>
	<rect x="31.5" y="17.2" class="st4" width="1" height="6"/>
	<rect x="38.5" y="17.2" class="st4" width="1" height="6"/>
	<rect x="41.5" y="17.2" class="st4" width="1" height="6"/>
	<rect x="44.5" y="17.2" class="st4" width="1" height="6"/>
	<rect x="51.5" y="17.2" class="st4" width="1" height="6"/>
	<rect x="54.5" y="17.2" class="st4" width="1" height="6"/>
	<rect x="57.5" y="17.2" class="st4" width="1" height="6"/>
	<rect x="54.5" y="5.2" class="st4" width="1" height="6"/>
	<rect x="51.5" y="5.2" class="st4" width="1" height="6"/>
	<rect x="57.5" y="5.2" class="st4" width="1" height="6"/>
	<rect x="25.5" y="17.2" class="st4" width="1" height="6"/>
	<path class="st4" d="M263.3,40.5c-3-3-6.5-4.4-10.6-4.4c-4.2,0-7.7,1.5-10.6,4.4c-2.9,3-4.4,6.5-4.4,10.7s1.5,7.8,4.4,10.7
		c2.9,3,6.5,4.4,10.6,4.4c3.8,0,7.1-1.2,9.8-3.7c0.5-0.6,0.8-1.2,0.8-2c0-0.8-0.3-1.5-0.8-2c-0.5-0.5-1.2-0.8-2-0.8
		c-0.7,0-1.3,0.3-1.9,0.7c-0.8,0.7-1.8,1.3-2.7,1.6c-1,0.4-2.1,0.5-3.2,0.5c-1,0-2-0.2-3-0.5s-1.8-0.8-2.6-1.4
		c-0.8-0.6-1.5-1.3-2.1-2.1c-0.6-0.8-1-1.7-1.3-2.7h21.3c0.8,0,1.5-0.3,2-0.8c0.5-0.5,0.8-1.2,0.8-2c0-2.1-0.4-4-1.1-5.8
		C265.9,43.6,264.8,41.9,263.3,40.5z M243.6,48.4c0.3-1,0.7-1.9,1.3-2.7c0.6-0.8,1.3-1.5,2.1-2.1c0.8-0.6,1.7-1,2.7-1.4s2-0.5,3-0.5
		s2,0.2,3,0.5c1,0.3,1.8,0.8,2.6,1.4c0.8,0.6,1.5,1.3,2.1,2.1c0.6,0.8,1.1,1.7,1.4,2.7H243.6z"/>
	<path class="st4" d="M292.7,37.9c-0.5-0.5-1.1-0.9-1.9-1.2s-1.6-0.5-2.5-0.6c-0.9-0.1-1.8-0.2-2.5-0.2c-1.8,0-3.5,0.3-5,0.9
		s-3,1.4-4.4,2.5v-0.5c0-0.8-0.3-1.4-0.8-2c-0.5-0.6-1.2-0.8-2-0.8c-0.8,0-1.5,0.3-2,0.8c-0.5,0.6-0.8,1.2-0.8,2v24.7
		c0,0.8,0.3,1.4,0.8,2c0.5,0.6,1.2,0.8,2,0.8c0.8,0,1.4-0.3,2-0.8c0.5-0.6,0.8-1.2,0.8-2V51.2c0-1.3,0.2-2.6,0.7-3.7
		c0.5-1.2,1.2-2.2,2-3s1.8-1.5,3-2c1.1-0.5,2.4-0.7,3.7-0.7c1.3,0,2.6,0.2,3.7,0.7c0.4,0.2,0.8,0.3,1.2,0.3c0.4,0,0.8-0.1,1.1-0.2
		c0.3-0.1,0.6-0.3,0.9-0.6c0.3-0.3,0.5-0.6,0.6-0.9c0.2-0.3,0.2-0.7,0.2-1.1C293.5,39,293.2,38.4,292.7,37.9z"/>
	<path class="st4" d="M234.6,38.8c0-0.4-0.1-0.7-0.2-1.1c-0.2-0.3-0.4-0.6-0.6-0.9s-0.5-0.5-0.9-0.6c-0.3-0.1-0.7-0.2-1.1-0.2
		c-0.6,0-1.1,0.1-1.5,0.4L214.2,47V25.9c0-0.8-0.3-1.5-0.8-2s-1.2-0.8-2-0.8c-0.8,0-1.5,0.3-2,0.8c-0.5,0.6-0.8,1.2-0.8,2v37.7
		c0,0.8,0.3,1.4,0.8,2c0.5,0.6,1.2,0.8,2,0.8c0.8,0,1.4-0.3,2-0.8c0.5-0.6,0.8-1.2,0.8-2v-9.8l3.3-2.2l12.4,14.1
		c0.5,0.5,1.1,0.7,1.9,0.7c0.4,0,0.8-0.1,1.1-0.2c0.3-0.1,0.6-0.3,0.9-0.6s0.5-0.6,0.6-0.9c0.2-0.3,0.2-0.7,0.2-1.1
		c0-0.7-0.3-1.4-0.8-2l-11.5-13.1l11.3-7.4C234.2,40.6,234.6,39.9,234.6,38.8z"/>
	<path class="st4" d="M140.3,23c-0.8,0-1.5,0.3-2,0.8c-0.5,0.5-0.8,1.2-0.8,2v13.5c-2.7-2.2-5.9-3.3-9.4-3.3
		c-4.2,0-7.7,1.5-10.6,4.4c-2.9,3-4.4,6.5-4.4,10.7s1.5,7.8,4.4,10.7c2.9,3,6.5,4.4,10.6,4.4c4.1,0,7.7-1.5,10.6-4.4
		c2.9-2.9,4.4-6.5,4.4-10.7V25.8c0-0.8-0.3-1.5-0.8-2S141.1,23,140.3,23z M136.8,54.9c-0.5,1.1-1.2,2.2-2,3c-0.9,0.9-1.8,1.6-3,2.1
		c-1.1,0.5-2.4,0.8-3.7,0.8c-1.3,0-2.6-0.3-3.7-0.8c-1.1-0.5-2.1-1.2-3-2s-1.5-1.9-2-3c-0.5-1.2-0.7-2.4-0.7-3.7
		c0-1.3,0.2-2.5,0.7-3.7c0.5-1.2,1.2-2.2,2-3c0.8-0.9,1.8-1.5,3-2c1.1-0.5,2.4-0.8,3.7-0.8c1.3,0,2.5,0.3,3.7,0.8
		c1.1,0.5,2.1,1.2,3,2.1c0.9,0.9,1.5,1.9,2,3c0.5,1.1,0.7,2.4,0.7,3.7C137.6,52.5,137.3,53.7,136.8,54.9z"/>
	<path class="st4" d="M172,40.5c-3-3-6.5-4.4-10.6-4.4c-4.2,0-7.7,1.5-10.6,4.4c-2.9,3-4.4,6.5-4.4,10.7s1.5,7.8,4.4,10.7
		c2.9,3,6.5,4.4,10.6,4.4c4.1,0,7.7-1.5,10.6-4.4c2.9-2.9,4.4-6.5,4.4-10.7c0-2.1-0.4-4-1.1-5.8C174.6,43.6,173.5,42,172,40.5z
		 M170.1,54.9c-0.5,1.1-1.2,2.2-2,3c-0.9,0.9-1.8,1.6-3,2.1s-2.4,0.8-3.7,0.8c-1.3,0-2.6-0.3-3.7-0.8c-1.1-0.5-2.1-1.2-3-2
		s-1.5-1.9-2-3c-0.5-1.2-0.7-2.4-0.7-3.7c0-1.3,0.2-2.5,0.7-3.7c0.5-1.2,1.2-2.2,2-3c0.8-0.9,1.8-1.5,3-2c1.1-0.5,2.4-0.8,3.7-0.8
		c1.3,0,2.5,0.3,3.7,0.8s2.1,1.2,3,2.1c0.9,0.9,1.5,1.9,2,3c0.5,1.1,0.7,2.4,0.7,3.7C170.8,52.5,170.6,53.7,170.1,54.9z"/>
	<path class="st4" d="M187.9,44.5c0.9-0.9,1.9-1.5,3-2c1.1-0.5,2.4-0.7,3.7-0.7c1.2,0,2.3,0.2,3.3,0.6c1,0.4,2,1,2.9,1.8
		c0.5,0.4,1.1,0.7,1.8,0.7c0.8,0,1.5-0.3,2-0.8c0.5-0.5,0.8-1.2,0.8-2c0-0.8-0.3-1.6-1-2.1c-2.8-2.5-6-3.7-9.8-3.7
		c-4.2,0-7.7,1.5-10.6,4.4c-2.9,3-4.4,6.5-4.4,10.7s1.5,7.8,4.4,10.7c2.9,3,6.5,4.4,10.6,4.4c3.8,0,7-1.2,9.8-3.7
		c0.6-0.6,0.9-1.3,0.9-2.1c0-0.8-0.3-1.5-0.8-2c-0.5-0.5-1.2-0.8-2-0.8c-0.7,0-1.3,0.2-1.8,0.6c-0.9,0.8-1.8,1.4-2.8,1.7
		s-2.1,0.6-3.3,0.6c-1.3,0-2.5-0.2-3.7-0.7c-1.1-0.5-2.1-1.2-3-2s-1.5-1.9-2-3c-0.5-1.2-0.7-2.4-0.7-3.7c0-1.3,0.2-2.6,0.7-3.7
		C186.4,46.3,187.1,45.3,187.9,44.5z"/>
	<path class="st4" d="M284.3,62.2c-1.1,0-2,0.9-2,2c0,1.1,0.9,2,2,2c1.1,0,2-0.9,2-2C286.3,63,285.4,62.2,284.3,62.2z M284.3,65.7
		c-0.9,0-1.5-0.7-1.5-1.6c0-0.9,0.6-1.6,1.5-1.6c0.9,0,1.5,0.7,1.5,1.6C285.8,65,285.1,65.7,284.3,65.7z"/>
	<path class="st4" d="M284.7,64.2L284.7,64.2c0.2-0.1,0.4-0.3,0.4-0.5c0-0.2-0.1-0.3-0.2-0.4c-0.1-0.1-0.3-0.1-0.7-0.1
		c-0.3,0-0.6,0-0.8,0.1v2h0.5v-0.8h0.2c0.3,0,0.4,0.1,0.4,0.3c0.1,0.2,0.1,0.4,0.2,0.5h0.5c0-0.1-0.1-0.2-0.1-0.5
		C285,64.4,284.9,64.3,284.7,64.2z M284.2,64.1H284v-0.6c0,0,0.1,0,0.3,0c0.3,0,0.4,0.1,0.4,0.3C284.6,64,284.4,64.1,284.2,64.1z"/>
</g>
</svg>
